<svg width="153" height="20" viewBox="0 0 153 20" fill="none" xmlns="http://www.w3.org/2000/svg">
<path fill-rule="evenodd" clip-rule="evenodd" d="M37.3384 1.33585C35.1155 1.51007 33.0838 2.35511 31.6369 3.71035C30.6202 4.67994 29.8526 5.88065 29.3993 7.21044C28.8156 8.89374 28.7341 10.9594 29.1776 12.7038C29.5794 14.2262 30.402 15.6047 31.5509 16.6813C32.1369 17.2197 32.551 17.5195 33.3406 17.9777C34.2766 18.5343 35.3025 18.9233 36.3723 19.127C38.085 19.4664 40.2039 19.3533 41.7763 18.8442C43.489 18.2876 45.0456 17.1586 46.0411 15.7514C47.376 13.8622 47.9303 11.2049 47.5061 8.72066C47.3251 7.65728 46.9846 6.76359 46.3748 5.74999C46.0264 5.17305 45.7334 4.75902 45.4246 4.40833C44.661 3.52193 43.7193 2.80618 42.6609 2.3076C41.5005 1.74776 40.243 1.41705 38.9572 1.33359C38.4179 1.30809 37.8777 1.30884 37.3384 1.33585ZM39.0398 2.72277C39.7118 2.811 40.1349 2.98522 40.5387 3.33817C41.1383 3.86194 41.584 4.54634 41.9143 5.45021C42.2424 6.33937 42.4222 7.25569 42.5433 8.64373C42.5931 9.20483 42.5999 11.1246 42.5546 11.6642C42.4867 12.49 42.386 13.2117 42.2605 13.766C42.0229 14.8226 41.5987 15.834 41.1371 16.4471C40.5297 17.2571 39.8 17.7186 38.8724 17.8849C38.4003 17.9504 37.9214 17.9504 37.4493 17.8849C36.734 17.7674 36.0784 17.4147 35.5861 16.8826C35.3269 16.6214 35.1128 16.3191 34.9526 15.9878C34.3757 14.8294 34.0657 13.4221 33.9639 11.49C33.9376 10.7056 33.9459 9.92054 33.9888 9.13696C34.0951 7.76588 34.301 6.7025 34.6426 5.76583C34.7852 5.37102 35.1246 4.69906 35.3372 4.3857C36.0069 3.40378 36.9051 2.83929 38.0036 2.71485C38.2785 2.68317 38.7593 2.6877 39.0398 2.72277ZM5.01973 2.33135C6.1736 1.75555 7.40214 1.43201 8.82412 1.32454C9.04358 1.3087 10.3592 1.33133 10.5776 1.35282C10.9577 1.39468 11.4724 1.48631 11.8299 1.57568C12.4747 1.73858 13.3763 2.06212 13.8921 2.31778C13.9905 2.36642 14.0788 2.40602 14.0878 2.40602C14.0991 2.40602 14.2722 2.26348 14.4725 2.08927L14.8333 1.77139H15.882L15.8933 1.98632C15.9069 2.1956 15.9091 2.20126 15.9838 2.27705C16.0287 2.32326 16.0634 2.37837 16.0856 2.43882C16.1128 2.53045 16.2078 7.08939 16.1953 7.61542C16.1908 7.84167 16.1818 7.90163 16.1444 7.96272C16.0754 8.07924 15.9578 8.12788 15.7474 8.12788C15.5494 8.12562 15.4363 8.09055 15.3458 8.00005C15.2971 7.95254 15.2677 7.94349 15.1082 7.93896L14.9283 7.93217L14.7915 7.52719C14.1105 5.52487 13.2202 4.06669 12.2235 3.32233C11.6964 2.93092 10.8491 2.68996 9.98592 2.68996C7.90442 2.68996 6.43718 3.98637 5.73242 6.4491C5.41906 7.54302 5.27992 8.7116 5.27992 10.2422C5.27765 11.9639 5.44621 13.1156 5.87609 14.335C6.09329 14.955 6.34216 15.455 6.59104 15.7717C7.23195 16.5887 8.14916 17.1434 9.17029 17.3317C10.4124 17.5749 11.7382 17.3928 12.7835 16.8374C13.5912 16.4075 14.4091 15.653 15.0833 14.7185C15.2643 14.4663 15.658 13.869 15.6738 13.8249C15.6784 13.8124 15.9182 13.9436 16.2055 14.1145L16.7316 14.4244L16.6874 14.5104L16.6422 14.5975L16.7101 14.688C16.8458 14.8735 16.7779 15.0704 16.3684 15.7095C15.5143 17.0387 14.5075 17.9381 13.1783 18.5569C12.0471 19.0852 10.9758 19.3035 9.51305 19.3035C9.00442 19.3091 8.49611 19.2754 7.99265 19.2028C6.63063 19.0128 5.49259 18.5987 4.23238 17.8419C2.89524 17.0365 1.92802 16.0093 1.23796 14.6631C0.978747 14.1673 0.770293 13.6465 0.615772 13.1088C0.203997 11.7151 0.12481 10.0555 0.397441 8.55662C0.714748 6.78145 1.56969 5.1466 2.8466 3.87325C3.47884 3.24041 4.21358 2.71909 5.01973 2.33135ZM86.5433 0.533798C86.679 0.52588 87.9732 0.454611 89.42 0.381079C90.8658 0.306417 92.1169 0.243067 92.2029 0.240804C92.3568 0.238542 92.359 0.238542 92.4518 0.331304C92.5457 0.420673 92.5479 0.425198 92.5479 0.568867C92.5479 0.697829 92.5536 0.718192 92.6011 0.748736C92.6395 0.781473 92.671 0.821452 92.6939 0.866386C92.7357 0.947836 92.7357 1.14467 92.747 8.7512V8.90618C92.7583 16.3713 92.7629 16.8724 92.7979 17.0059C92.8206 17.0851 92.8466 17.1745 92.8602 17.205C92.928 17.377 93.5683 17.653 94.1 17.7435L94.333 17.782L94.3398 17.9833C94.3444 18.1655 94.3512 18.187 94.3975 18.2164C94.5197 18.2967 94.5638 18.5637 94.4767 18.7028C94.4437 18.7496 94.3999 18.7876 94.3489 18.8137C94.2708 18.8533 94.1294 18.8555 90.9393 18.8612C88.5241 18.8657 87.5795 18.8589 87.4901 18.8419C87.4113 18.8308 87.3391 18.7919 87.2865 18.7322L87.2039 18.6474H86.7582V18.3227C86.7582 18.1462 86.765 17.9494 86.7718 17.8849C86.7842 17.7786 86.7899 17.7718 86.8487 17.7718C86.8826 17.7718 87.0727 17.7514 87.2729 17.7265C87.8182 17.6587 88.1406 17.5342 88.3261 17.3272C88.4245 17.2152 88.4619 17.1417 88.5128 16.946C88.5546 16.7819 88.5546 16.6417 88.5546 9.90507C88.5546 3.08364 88.5546 3.02707 88.5105 2.84381C88.4429 2.58024 88.3177 2.33492 88.144 2.12547C88.0048 1.97501 87.8725 1.90827 87.4573 1.79288C87.3269 1.75653 87.1968 1.7192 87.067 1.68089C86.9821 1.66111 86.903 1.62158 86.8363 1.5655C86.7673 1.50215 86.7231 1.48405 86.5614 1.45577C86.4854 1.44045 86.4088 1.42875 86.3317 1.4207C86.2944 1.4207 86.2921 1.38676 86.2921 0.985167V0.551898L86.5433 0.533798ZM95.0401 0.533798C95.1758 0.52588 96.4711 0.454611 97.918 0.381079C99.3637 0.306417 100.615 0.243067 100.701 0.240804C100.855 0.238542 100.857 0.238542 100.95 0.331304C101.042 0.420673 101.045 0.427461 101.045 0.560948C101.045 0.689911 101.052 0.704617 101.121 0.772492C101.166 0.817742 101.205 0.885617 101.22 0.945573C101.238 1.02024 101.245 3.03839 101.245 8.79079C101.247 13.2705 101.256 16.627 101.268 16.7548C101.279 16.8736 101.307 17.0376 101.331 17.1168C101.372 17.2378 101.391 17.2706 101.471 17.3272C101.711 17.4958 102.199 17.6779 102.598 17.7435L102.831 17.782L102.838 17.9833C102.845 18.17 102.847 18.1847 102.9 18.2209C102.975 18.2684 103.019 18.3793 103.019 18.5184C103.019 18.6576 102.962 18.7582 102.847 18.8125C102.768 18.8533 102.626 18.8555 99.4372 18.8612C97.022 18.8657 96.0774 18.8589 95.9869 18.8419C95.9082 18.8307 95.836 18.7918 95.7833 18.7322L95.7019 18.6474H95.2561V18.4211C95.2561 18.299 95.2629 18.1021 95.272 17.9833L95.2844 17.7718H95.3466C95.3806 17.7718 95.5706 17.7514 95.7709 17.7265C96.3161 17.6587 96.6374 17.5342 96.8241 17.3272C96.9213 17.2152 96.9598 17.1417 97.0107 16.946C97.0526 16.7819 97.0526 16.6417 97.0526 9.90507C97.0526 3.08364 97.0526 3.02707 97.0073 2.84381C96.94 2.58034 96.8152 2.33502 96.6419 2.12547C96.5028 1.97501 96.3693 1.90827 95.9541 1.79288C95.8238 1.75653 95.6937 1.7192 95.5638 1.68089C95.4789 1.66111 95.3999 1.62158 95.3331 1.5655C95.2652 1.50215 95.2199 1.48405 95.0582 1.45577C94.9826 1.44049 94.9063 1.42879 94.8297 1.4207C94.7923 1.4207 94.7901 1.38676 94.7901 0.985167V0.551898L95.0401 0.533798ZM130.915 0.271348C130.133 0.418411 129.432 0.959148 129.146 1.63677C129.031 1.9107 128.98 2.20773 128.999 2.50444C129.022 3.04857 129.193 3.44564 129.583 3.85062C129.786 4.0599 129.973 4.20131 130.257 4.35403L130.386 4.4253L130.507 4.49091L130.583 4.53277C130.747 4.62327 131.018 4.71716 131.233 4.75675C131.469 4.79974 131.928 4.802 132.158 4.75902C133.041 4.59385 133.762 3.93547 133.926 3.14585C133.994 2.76876 133.965 2.3803 133.84 2.018C133.692 1.71131 133.516 1.41896 133.314 1.14467C132.999 0.748735 132.522 0.442167 132.016 0.310942C131.654 0.237735 131.282 0.22436 130.915 0.271348ZM17.7949 2.70127V1.77139H27.2884V1.98632C27.2884 2.13225 27.2884 2.17864 27.3099 2.20918C27.3201 2.22389 27.3348 2.23407 27.3563 2.2499C27.483 2.34267 27.5259 2.55195 27.4524 2.73408C27.3845 2.90037 27.2793 2.9377 26.656 3.02142C25.9365 3.11531 25.5338 3.25785 25.2827 3.50446C25.0519 3.73184 24.9524 3.98637 24.915 4.44114C24.8856 4.77599 24.8856 16.205 24.915 16.5444C24.9263 16.6801 24.9569 16.8657 24.9829 16.955C25.0293 17.1111 25.0395 17.1213 25.1673 17.2141C25.2431 17.2661 25.363 17.334 25.4354 17.3668C25.7092 17.4856 26.4309 17.6338 27.0169 17.6903L27.2884 17.7152V18.1236L27.363 18.1892C27.4592 18.2707 27.4965 18.3759 27.483 18.5309C27.4694 18.6711 27.4185 18.7503 27.2963 18.8114C27.2103 18.8555 27.1662 18.8555 22.8516 18.8555C18.5834 18.8555 18.4907 18.8555 18.4058 18.8137C18.3572 18.7894 18.3156 18.7532 18.2848 18.7085C18.2486 18.6474 18.2463 18.6474 18.0201 18.6474H17.7938L17.7983 18.1813L17.8051 17.7175L17.994 17.7016L18.3617 17.6756L18.5042 17.6643C19.2565 17.6078 19.5043 17.5636 19.7577 17.4415C19.9963 17.3249 20.1411 17.1982 20.2441 17.0082C20.2581 16.9812 20.2732 16.9548 20.2893 16.929C20.3912 16.7491 20.3912 16.5116 20.39 11.5906V10.3168C20.39 4.21828 20.39 4.07235 20.347 3.91171C20.2565 3.56555 20.1185 3.39134 19.8549 3.29405C19.5447 3.18757 19.2271 3.10364 18.9047 3.04291C18.4816 2.95128 18.3888 2.91621 18.3164 2.83024C18.278 2.78725 18.2293 2.77141 18.0314 2.7386L17.7938 2.70127H17.7949ZM51.7143 2.2352L51.7211 2.69901L51.9587 2.74426C52.16 2.78725 52.2042 2.80195 52.2619 2.86078C52.341 2.93997 52.4463 2.97504 52.8083 3.05196C53.4304 3.18319 53.8264 3.31894 53.9621 3.45242C54.0176 3.50953 54.0634 3.57524 54.0979 3.647L54.116 3.68207C54.1203 3.69068 54.1244 3.69935 54.1284 3.70809C54.2167 3.88909 54.2167 4.11307 54.2167 9.28515V11.3678C54.2167 16.4301 54.2167 16.6699 54.1194 16.8589C54.1146 16.8683 54.1097 16.8778 54.1047 16.8871L54.0786 16.9358C53.9497 17.1915 53.6261 17.4109 53.2302 17.5093C53.056 17.5523 52.5062 17.6315 52.0085 17.6847C51.918 17.6935 51.8279 17.7048 51.7381 17.7186C51.7155 17.7254 51.7098 17.8374 51.7098 18.1881V18.6474H52.1555L52.2381 18.7322C52.3003 18.7967 52.349 18.8227 52.4372 18.8419C52.5877 18.8725 60.9057 18.8759 61.8243 18.8442C64.0189 18.7673 65.4579 18.4879 66.64 17.903C67.6423 17.4053 68.277 16.7016 68.5767 15.7559C68.7238 15.2966 68.7543 15.0534 68.7566 14.4335C68.7566 13.9504 68.7498 13.8577 68.7046 13.6416C68.6141 13.1925 68.5191 12.9538 68.2476 12.4855C68.0916 12.1954 67.9058 11.9224 67.6932 11.671C67.1593 11.0386 66.3934 10.5465 65.3855 10.1879C64.9107 10.0274 64.4268 9.89515 63.9364 9.79195C63.7588 9.75575 63.623 9.71955 63.6275 9.70597C63.6456 9.65507 63.8357 9.57701 64.3312 9.41864C64.6174 9.32814 64.976 9.2037 65.1253 9.14487C66.7351 8.51137 67.6163 7.59959 67.8018 6.37897C67.8516 6.05656 67.8471 5.53392 67.7905 5.21604C67.6978 4.68209 67.6027 4.4581 67.1751 3.76465C66.5473 2.75218 65.2893 2.14357 63.2995 1.8913L63.2361 1.88338H63.235C63.1309 1.8698 63.0404 1.85849 62.951 1.84944C62.3809 1.78609 61.8028 1.78496 57.5776 1.77817H56.9826L51.7098 1.76912L51.7143 2.2352ZM60.8039 3.11757C61.4261 3.21147 61.8424 3.37324 62.1128 3.6255C62.6332 4.10855 62.8979 4.77033 62.9273 5.65836C62.9646 6.75794 62.6761 7.58488 62.0347 8.21725C61.7067 8.54192 61.3503 8.74894 60.8379 8.91297C60.3786 9.06003 59.9521 9.11885 59.2247 9.14148L58.7462 9.15392L58.7303 8.99216C58.7236 8.90166 58.719 7.63239 58.7236 6.17082C58.7303 3.97054 58.7371 3.49767 58.7609 3.43432C58.857 3.19789 59.012 3.11305 59.4 3.08364C59.8682 3.05995 60.3375 3.0713 60.8039 3.11757ZM60.9883 10.568C61.6512 10.6698 62.2259 10.8655 62.5562 11.1019C62.7474 11.2399 63.0472 11.551 63.1909 11.766C63.597 12.3655 63.7769 13.0307 63.7769 13.9391C63.7769 14.3554 63.7497 14.6484 63.6762 15.0047C63.399 16.36 62.4748 17.2786 61.1591 17.5025C60.8661 17.5523 60.2428 17.5512 59.9611 17.5003C59.5392 17.4256 59.1127 17.2424 58.8899 17.041L58.8672 17.0206L58.8333 16.9901C58.7292 16.8826 58.7292 16.6733 58.7303 14.2921V13.8316C58.7303 11.5601 58.7371 10.956 58.7586 10.8813C58.7814 10.8166 58.817 10.7571 58.8632 10.7063C58.9095 10.6556 58.9655 10.6147 59.0279 10.5861C59.1783 10.5205 59.3684 10.5069 60.0505 10.5159C60.5562 10.5205 60.744 10.5307 60.9883 10.568ZM119.611 6.89255V3.2816H123.537V3.72166L123.623 3.80198C123.682 3.85306 123.721 3.92307 123.734 3.99995C123.75 4.07914 123.759 4.55087 123.759 5.47057C123.759 6.21494 123.766 6.83939 123.773 6.85749C123.785 6.88916 123.944 6.89255 125.347 6.89255H126.909V7.11654C126.909 7.3394 126.909 7.34279 126.971 7.37673C127.084 7.44008 127.119 7.54981 127.119 7.84507C127.119 8.14711 127.084 8.25005 126.95 8.32698C126.878 8.36884 126.825 8.3711 125.534 8.38354C124.493 8.39259 124.174 8.40164 124.114 8.42314C123.995 8.46513 123.896 8.55138 123.838 8.66409L123.792 8.76477L123.785 12.0363C123.779 15.5172 123.781 15.6971 123.884 16.1914C123.994 16.7435 124.108 16.9245 124.429 17.0806C124.817 17.2661 125.19 17.2989 126.155 17.222C126.442 17.2005 126.927 17.1428 127.013 17.1213C127.064 17.11 127.063 17.1134 127.063 17.36C127.063 17.5942 127.066 17.6089 127.113 17.6292C127.153 17.6538 127.187 17.6866 127.213 17.7254C127.255 17.7876 127.264 17.8306 127.264 17.963C127.264 18.2232 127.181 18.3566 126.953 18.472C126.565 18.6355 126.168 18.7767 125.764 18.8951C125.135 19.0806 124.655 19.1485 123.868 19.1666C123.043 19.1836 122.494 19.1214 121.965 18.9494C121.568 18.799 121.188 18.6067 120.831 18.3759C120.283 18.0082 119.844 17.3317 119.678 16.6032L119.663 16.5376L119.662 16.5353C119.654 16.5026 119.647 16.4698 119.64 16.4369C119.581 16.1518 119.58 15.8543 119.571 12.9244L119.569 12.2841C119.562 10.163 119.546 8.42087 119.538 8.40956C119.291 8.39011 119.043 8.38067 118.795 8.38128C118.327 8.37223 118.05 8.35865 118.011 8.34395C117.968 8.32076 117.929 8.29012 117.897 8.25345C117.878 8.23082 117.866 8.21612 117.851 8.20594C117.817 8.18444 117.769 8.18444 117.616 8.18444H117.392V6.89255H119.611ZM110.007 6.52037C108.193 6.69006 106.57 7.50456 105.547 8.75799C104.545 9.98213 104.045 11.5413 104.148 13.1201C104.265 15.0636 104.986 16.5783 106.275 17.5919C106.561 17.8182 106.726 17.9268 107.189 18.1983C107.779 18.5467 108.271 18.7594 108.879 18.9324C110.063 19.2673 111.681 19.3329 112.865 19.0942C113.788 18.9053 114.883 18.3928 115.662 17.7808C116.065 17.4641 116.758 16.7186 116.92 16.4256C117.002 16.2774 117.002 16.1405 116.917 16.0342L116.855 15.9527L116.904 15.8735C116.929 15.8306 116.942 15.7887 116.933 15.7797C116.894 15.7468 116.039 15.1462 116.03 15.1462C115.988 15.1917 115.95 15.2405 115.915 15.2921C115.296 16.1541 114.412 16.8611 113.615 17.1258C113.161 17.2659 112.687 17.326 112.212 17.3034C111.314 17.2593 110.649 17.0648 110.095 16.6813C109.863 16.5096 109.654 16.3097 109.473 16.0862C109.061 15.5342 108.719 14.2389 108.71 13.197C108.708 12.9323 108.712 12.8927 108.756 12.8124C108.814 12.7039 108.91 12.6208 109.026 12.5793C109.09 12.5579 109.924 12.5488 112.845 12.5398H112.883C116.532 12.5284 116.582 12.5284 116.658 12.4855C116.825 12.3893 116.862 12.1574 116.818 11.5126C116.789 10.9718 116.684 10.4379 116.506 9.92657C116.398 9.62452 116.279 9.38244 116.026 8.95935C115.829 8.61207 115.584 8.29505 115.296 8.01815C114.916 7.63453 114.469 7.32429 113.976 7.10297C113.336 6.79866 112.78 6.65047 111.935 6.55205C111.293 6.50781 110.649 6.49723 110.005 6.52037H110.007ZM111.364 7.76588C111.49 7.80547 111.528 7.83262 111.634 7.94801C111.755 8.07924 111.912 8.34621 112 8.57812C112.184 9.04872 112.288 9.78064 112.326 10.8598L112.341 11.2931L111.645 11.2954C111.261 11.2976 110.474 11.3033 109.895 11.3123C109.524 11.319 109.152 11.3205 108.781 11.3169L108.719 11.3101V11.1087C108.719 10.896 108.766 10.4435 108.821 10.1223C109.049 8.79079 109.615 7.9695 110.456 7.74665C110.678 7.68556 111.146 7.69687 111.363 7.76701L111.364 7.76588ZM144.047 7.27831C144.59 6.91518 145.364 6.64934 146.174 6.55431C146.628 6.51483 147.084 6.51483 147.538 6.55431C148.685 6.68554 149.492 7.12446 150.073 7.93217C150.218 8.13354 150.544 8.70482 150.641 8.92654C150.832 9.3666 150.95 9.87453 150.994 10.4605C151.008 10.6381 151.017 11.9651 151.017 13.7773C151.017 15.567 151.025 16.8543 151.038 16.9403C151.049 17.0195 151.074 17.1349 151.094 17.1982C151.125 17.2967 151.144 17.3227 151.245 17.3883C151.465 17.5308 151.922 17.6824 152.32 17.7435L152.546 17.7774V18.1609L152.633 18.2469C152.7 18.3125 152.724 18.3555 152.735 18.437C152.769 18.6519 152.668 18.799 152.458 18.8419C152.296 18.8759 146.162 18.8748 145.998 18.8419C145.922 18.8287 145.851 18.7901 145.799 18.7322L145.717 18.6474H145.264L145.278 18.2175C145.287 17.9822 145.296 17.7842 145.298 17.7831C145.303 17.7786 145.476 17.7559 145.686 17.7299C145.894 17.7039 146.13 17.6643 146.208 17.6394C146.329 17.6037 146.44 17.5385 146.53 17.4497C146.62 17.3609 146.686 17.2512 146.724 17.1304C146.799 16.8758 146.804 16.7005 146.795 13.5036L146.794 13.1789C146.788 10.5669 146.787 10.2478 146.714 9.9458L146.681 9.81457L146.668 9.77159C146.588 9.50482 146.463 9.25379 146.298 9.02949C146.102 8.78853 145.786 8.6969 145.206 8.71613C144.818 8.72744 144.585 8.77495 144.235 8.91523C143.561 9.18673 142.867 9.78403 142.671 10.2614L142.62 10.3836L142.614 13.5251C142.607 16.7774 142.609 16.929 142.699 17.2096C142.738 17.3363 142.754 17.3577 142.849 17.4166C143.062 17.5523 143.465 17.6926 143.803 17.7492L143.962 17.7763V17.9686C143.962 18.1496 143.964 18.1632 144.02 18.1983C144.107 18.2537 144.169 18.4132 144.158 18.5422C144.155 18.6001 144.137 18.6562 144.104 18.7039C144.071 18.7516 144.025 18.7889 143.971 18.8114C143.887 18.8544 143.834 18.8555 140.703 18.8612H140.679C138.357 18.8657 137.442 18.8589 137.352 18.8419C137.273 18.8308 137.201 18.7919 137.149 18.7322L137.066 18.6474H136.62V18.4211C136.62 18.299 136.627 18.1044 136.634 17.9912L136.65 17.7808L137.04 17.7322C137.668 17.653 137.931 17.5682 138.135 17.3804C138.261 17.2611 138.349 17.1072 138.388 16.9381C138.426 16.8046 138.428 16.6111 138.428 13.0658C138.428 9.60303 138.426 9.32474 138.391 9.19691C138.321 8.96769 138.209 8.75357 138.06 8.56567C137.902 8.37336 137.805 8.3168 137.408 8.20367C137.126 8.12449 137.057 8.09394 136.978 8.0091C136.929 7.95706 136.886 7.94122 136.711 7.91294C136.635 7.89914 136.559 7.88744 136.482 7.87787C136.466 7.73329 136.461 7.58774 136.465 7.44234V7.00907L136.638 6.9955C136.731 6.98871 138.024 6.91631 139.511 6.83599L142.214 6.69119L142.312 6.78509L142.41 6.88011V7.03849C142.41 7.17763 142.417 7.20139 142.456 7.22288C142.496 7.25678 142.528 7.29933 142.549 7.34732C142.592 7.44008 142.598 7.50343 142.609 7.93896L142.62 8.42992L143.057 8.05661C143.548 7.63918 143.777 7.45931 144.047 7.27831ZM72.7816 6.83825C71.3845 6.91292 70.1356 6.98305 70.0055 6.99097L69.7657 7.00681V7.87335L69.8833 7.88919C70.1628 7.92199 70.2318 7.94575 70.3064 8.02494C70.3709 8.09507 70.4082 8.10978 70.708 8.18671C70.8924 8.23535 71.096 8.2987 71.1628 8.33377C71.3777 8.44011 71.6289 8.78401 71.7103 9.08379C71.7442 9.21275 71.7488 9.4933 71.7623 12.4097C71.7623 12.5884 71.7624 12.757 71.7646 12.9187C71.7748 15.3113 71.7759 15.6812 71.8506 16.0364C71.863 16.1021 71.88 16.1665 71.8981 16.2423L71.9196 16.3272C72.1006 17.058 72.3947 17.5897 72.88 18.067C73.1402 18.3216 73.19 18.3589 73.6696 18.6496C74.0554 18.8838 74.4773 19.0478 74.8982 19.127C75.5317 19.2492 76.5419 19.2379 77.1957 19.1044C77.9016 18.9619 78.8474 18.4924 79.4277 17.9992L79.6766 17.7865L79.7874 17.6903C79.8757 17.6157 79.9752 17.5399 80.0137 17.5206L80.0804 17.4844V18.5772L80.1732 18.6564C80.2569 18.7288 80.2773 18.7356 80.4085 18.7356C80.5352 18.7356 80.5556 18.7413 80.594 18.7899C80.6517 18.8623 80.7343 18.903 80.8565 18.9211C80.947 18.9324 85.5873 18.6666 85.8249 18.6338C86.0794 18.601 86.2016 18.4856 86.2016 18.2797C86.2016 18.1508 86.1643 18.058 86.0817 17.9946C86.0308 17.955 86.0263 17.9381 86.0195 17.7367L86.0138 17.5195L85.7808 17.5048C85.119 17.4596 84.7887 17.3577 84.5093 17.1145C84.3894 17.0093 84.3566 16.9528 84.3011 16.7718C84.2638 16.653 84.2615 16.334 84.2502 12.0477C84.2389 7.78285 84.2366 7.4446 84.2016 7.36768C84.1778 7.31775 84.1453 7.27252 84.1054 7.23419C84.0602 7.19007 84.0489 7.15727 84.0375 7.01812C84.024 6.86201 84.0172 6.8473 83.9369 6.77038L83.8554 6.68893L81.2954 6.82468C79.8892 6.89934 78.5713 6.97174 78.3677 6.98532L77.9944 7.00794V7.4446C77.9944 7.8428 77.9967 7.87787 78.0351 7.87787C78.0544 7.87787 78.1573 7.88692 78.2591 7.9005C78.4277 7.91973 78.4492 7.92652 78.5193 7.99665C78.6098 8.09055 78.6652 8.10752 79.0397 8.16069C79.4616 8.21951 79.6008 8.26929 79.7207 8.39825C79.827 8.51477 79.9492 8.74215 80.0069 8.94012C80.0442 9.06229 80.0465 9.30099 80.0533 12.4379L80.0578 15.8034L79.9865 15.9064C79.8847 16.0557 79.5849 16.3532 79.3768 16.515C78.784 16.9754 78.2546 17.1632 77.5623 17.1677C77.2829 17.1677 77.2025 17.1609 77.0543 17.1191C76.8082 17.0533 76.5816 16.9291 76.3937 16.7571C76.2954 16.6743 76.2215 16.5664 76.1799 16.4448C76.0962 16.229 76.0378 16.0043 76.0057 15.7751C75.9717 15.5715 75.9672 15.136 75.9559 11.4786C75.9434 7.58714 75.9412 7.40275 75.9027 7.32695C75.8793 7.28204 75.847 7.24238 75.8077 7.21044C75.7613 7.17989 75.7545 7.15953 75.7545 7.02604C75.7545 6.89482 75.7455 6.86767 75.6878 6.78848L75.621 6.69572L75.4706 6.69798C75.388 6.70024 74.1798 6.76359 72.7816 6.83825ZM127.847 6.99097C127.982 6.98305 129.245 6.91179 130.646 6.83825C132.05 6.76359 133.266 6.70024 133.352 6.69798C133.505 6.69572 133.507 6.69572 133.601 6.78848C133.694 6.87785 133.696 6.88237 133.696 7.0283C133.696 7.16179 133.701 7.17989 133.751 7.2127C133.795 7.25016 133.831 7.29641 133.856 7.34845L133.906 7.45026L133.918 12.1676V12.1744C133.929 16.877 133.929 16.8849 133.975 17.0319C134.003 17.1134 134.038 17.2016 134.06 17.2333C134.178 17.4132 134.807 17.6643 135.349 17.7526L135.515 17.7786V17.9686C135.515 18.1496 135.517 18.1632 135.571 18.196C135.668 18.2594 135.714 18.36 135.714 18.5048C135.714 18.6643 135.666 18.7537 135.546 18.8137C135.462 18.8533 135.367 18.8555 132.033 18.8555C128.73 18.8555 128.603 18.8533 128.522 18.8137C128.474 18.7902 128.432 18.7547 128.402 18.7107L128.363 18.6474H127.885V18.3781C127.885 18.2288 127.892 18.032 127.898 17.9403C127.913 17.7763 127.915 17.7718 127.971 17.7718C128.116 17.7718 128.754 17.6802 128.894 17.6383C129.247 17.5331 129.495 17.3487 129.603 17.1134L129.637 17.0376C129.73 16.8159 129.728 16.5534 129.721 12.9425C129.715 9.43561 129.713 9.26139 129.674 9.14714C129.601 8.93525 129.485 8.74078 129.333 8.57585C129.178 8.41409 129.058 8.35752 128.594 8.22856C128.301 8.14711 128.233 8.11657 128.137 8.0272C128.079 7.97177 128.026 7.9548 127.832 7.91521L127.596 7.87109V7.00681L127.847 6.99097Z" fill="url(#paint0_radial_903_244)"/>
<defs>
<radialGradient id="paint0_radial_903_244" cx="0" cy="0" r="1" gradientUnits="userSpaceOnUse" gradientTransform="translate(0.140608 19.1486) rotate(-7.177) scale(153.925 1230.27)">
<stop stop-color="#C09898"/>
<stop offset="1" stop-color="#E8C0B0"/>
</radialGradient>
</defs>
</svg>
