<svg width="144" height="145" viewBox="0 0 144 145" fill="none" xmlns="http://www.w3.org/2000/svg">
<g filter="url(#filter0_b_903_130)">
<rect y="0.730469" width="144" height="144" rx="6" fill="#0E0A0F"/>
<rect y="0.730469" width="144" height="144" rx="6" fill="url(#paint0_radial_903_130)" fill-opacity="0.57"/>
<rect y="0.730469" width="144" height="144" rx="6" fill="url(#paint1_radial_903_130)"/>
<rect y="0.730469" width="144" height="144" rx="6" fill="url(#paint2_radial_903_130)"/>
<g clip-path="url(#clip0_903_130)">
<mask id="mask0_903_130" style="mask-type:luminance" maskUnits="userSpaceOnUse" x="25" y="59" width="94" height="27">
<path d="M25.0263 59.6113H118.974V85.8613H25.0263V59.6113Z" fill="white"/>
</mask>
<g mask="url(#mask0_903_130)">
<path fill-rule="evenodd" clip-rule="evenodd" d="M64.5415 78.6361C63.492 79.2402 62.2983 79.5481 61.0876 79.5273C57.1708 79.5273 54.8705 76.8056 54.8705 72.1911C54.8705 68.9098 56.1208 66.7477 57.7925 65.6079C58.8451 64.9335 60.0656 64.5674 61.3156 64.5509C62.2736 64.5438 63.22 64.7615 64.0787 65.1865C64.5796 65.4608 65.0438 65.7974 65.4603 66.1881L63.6504 68.6335C63.0598 68.0054 62.2629 67.6106 61.4054 67.5213C59.7336 67.5213 58.9876 68.9651 58.9876 72.3016C58.9876 74.1598 59.2363 75.272 59.6784 75.8868C59.8844 76.1344 60.1435 76.3325 60.4365 76.4664C60.7294 76.6003 61.0488 76.6667 61.3708 76.6605C62.3415 76.6131 63.2577 76.1982 63.9336 75.5L64.1547 75.2996L65.8333 77.5792C65.4567 77.9928 65.0215 78.3489 64.5415 78.6361ZM76.9343 77.524C76.3527 78.1883 75.6274 78.7114 74.8135 79.0537C73.9996 79.396 73.1185 79.5485 72.2369 79.4996C68.3754 79.4996 65.8471 76.6052 65.8471 72.1358C65.8471 67.6664 68.4031 64.6891 72.2369 64.6891C73.1533 64.6505 74.0662 64.8236 74.9048 65.195C75.7434 65.5664 76.4852 66.1261 77.0725 66.8306C78.2123 68.1638 78.7096 69.7181 78.7096 72.0253C78.7096 74.4707 78.157 76.1355 76.9343 77.524ZM73.9017 68.1914C73.7113 67.9485 73.4663 67.7538 73.1867 67.623C72.9072 67.4922 72.6007 67.429 72.2922 67.4384C71.8602 67.4406 71.4405 67.5824 71.0957 67.8426C70.7509 68.1027 70.4994 68.4674 70.3787 68.8822C70.076 69.9108 69.9407 70.9814 69.978 72.0529C69.9166 73.2666 70.0782 74.4817 70.4547 75.6381C70.6261 75.9914 70.8944 76.2887 71.2283 76.4954C71.5622 76.702 71.9479 76.8096 72.3405 76.8056C73.9501 76.8056 74.6478 75.3549 74.6478 71.97C74.6547 70.0773 74.406 68.8269 73.9017 68.1914ZM88.0747 78.2009C88.3109 78.7536 88.6929 79.2316 89.1799 79.5825L91.8256 78.0835C91.255 77.3442 90.9507 76.4338 90.9622 75.5V64.6338L87.4046 65.3868V75.3894C87.1695 75.7972 86.8342 76.1381 86.4304 76.3799C86.0266 76.6216 85.5678 76.7563 85.0974 76.771C84.8386 76.7784 84.5824 76.7186 84.3536 76.5976C84.1248 76.4765 83.9312 76.2983 83.7918 76.0802C83.5272 75.332 83.4236 74.5364 83.4878 73.7454V64.6062L79.8197 65.297V74.4431C79.762 75.3975 79.8647 76.3548 80.1237 77.2753C80.6003 78.6361 82.3204 79.5825 84.3237 79.5825C85.7057 79.625 87.0504 79.1298 88.0747 78.2009ZM103.77 77.8832C103.285 78.4052 102.695 78.819 102.039 79.0976C101.384 79.3761 100.676 79.5131 99.9638 79.4996C98.9251 79.5112 97.9013 79.2517 96.9934 78.7467C97.0411 79.1335 97.0598 79.5245 97.0487 79.9141V84.3628L93.4635 85.3023V68.8546C93.5089 67.6551 93.4348 66.4541 93.2425 65.2694L96.5444 64.6891C96.6757 65.1236 96.7593 65.5706 96.7931 66.0223C97.2566 65.5751 97.8059 65.2264 98.4078 64.9973C99.0098 64.7682 99.6519 64.6633 100.295 64.6891C101.306 64.689 102.295 64.9896 103.135 65.5526C104.668 66.575 105.78 68.4125 105.78 71.6937C105.746 74.747 105.241 76.3013 103.77 77.8832ZM101.325 68.9029C101.207 68.5327 100.967 68.2131 100.645 67.9961C100.323 67.7792 99.9367 67.6776 99.5494 67.7079C99.0854 67.7133 98.6274 67.8121 98.2025 67.9984C97.7776 68.1848 97.3946 68.4548 97.0763 68.7924V75.7003C97.6585 76.1948 98.3861 76.4858 99.1487 76.5292C100.986 76.5292 101.705 75.2789 101.705 72.0322C101.74 70.978 101.612 69.9247 101.325 68.9098V68.9029ZM115.052 78.194C115.503 78.9772 116.207 79.5838 117.048 79.9141L118.99 77.6345C117.739 76.6881 117.656 76.025 117.656 74.4707L117.739 69.6904C117.824 68.8304 117.739 67.9621 117.491 67.1345C116.931 65.5526 115.294 64.6615 112.904 64.6615C111.563 64.6645 110.238 64.9493 109.015 65.4973C108.209 65.8103 107.437 66.2014 106.707 66.6648L108.296 69.3312C109.857 68.3019 111.246 67.7148 112.441 67.7148C113.802 67.7148 114.106 68.2467 114.106 69.8286V70.4158C113.828 70.3874 113.549 70.3759 113.27 70.3812C108.745 70.3812 106.438 71.9424 106.438 75.272C106.438 78.1111 108.158 79.7207 111.329 79.7207C112.34 79.764 113.34 79.4912 114.189 78.9401C114.496 78.7154 114.785 78.4659 115.052 78.194ZM110.431 75.1684C110.431 73.4759 111.301 73.0062 113.885 73.0062H114.071L114.016 76.0595C113.777 76.347 113.481 76.582 113.147 76.7496C112.813 76.9173 112.448 77.0139 112.075 77.0335C111.723 77.025 111.383 76.9073 111.101 76.6968C110.819 76.4862 110.61 76.1933 110.502 75.8585C110.431 75.636 110.407 75.4005 110.431 75.1684Z" fill="url(#paint3_linear_903_130)"/>
<path d="M46.5513 70.1944C46.0956 69.9767 45.6349 69.7694 45.1697 69.5727C45.6256 69.4829 46.0954 69.3724 46.5513 69.2412C49.7634 68.3708 51.8151 66.9892 51.3246 66.1119C50.8342 65.2346 48.1125 65.2 45.0384 65.9254C44.5963 66.029 44.1681 66.1464 43.7536 66.2708C43.9677 65.953 44.1819 65.6283 44.3753 65.2898C45.674 63.0033 45.9227 61.0484 45.0661 60.6823C44.2095 60.3162 42.4618 61.5941 40.9628 63.7425C40.7417 64.0671 40.5414 64.3918 40.3549 64.7165C40.2582 64.3573 40.1408 64.0257 40.0095 63.6389C39.146 61.2073 37.7437 59.5356 36.8181 59.6806C35.8924 59.8257 35.5954 61.8359 36.3069 64.3987C36.4174 64.7787 36.5348 65.1517 36.673 65.5109C36.2654 65.2898 35.8648 65.0826 35.4365 64.9168C32.4661 63.4938 29.5509 62.9481 28.8118 63.6734C28.0727 64.3987 29.8618 66.2984 33.0187 67.8734C33.4788 68.0993 33.9278 68.3065 34.3658 68.4951C33.8477 68.5849 33.3019 68.6954 32.7493 68.8267C28.6046 69.8145 24.971 71.5898 25.0056 72.8056C25.0401 74.0214 28.9914 74.056 33.4884 72.8056C34.0825 72.6467 34.6559 72.4671 35.1947 72.2875C34.8493 72.7227 34.5039 73.1994 34.1516 73.6691C31.3884 77.6757 29.8342 82.0898 31.119 82.8635C32.4039 83.6372 35.8371 80.2523 38.2963 75.9694C38.6072 75.4237 38.8835 74.8987 39.1253 74.3875C39.2358 74.9264 39.374 75.4859 39.5329 76.0731C40.8108 80.653 43.1802 84.4385 44.5894 83.8514C45.9986 83.2642 45.598 78.8777 44.0437 74.6224C43.8434 74.0767 43.6361 73.5655 43.422 73.0819C43.8848 73.3583 44.3753 73.6208 44.8865 73.8833C48.6789 75.7898 52.1467 76.4254 52.4852 75.2648C52.8236 74.1043 50.0674 71.88 46.5513 70.1944Z" fill="#A7A1CF"/>
<path d="M36.2779 71.528C35.8772 71.6661 35.442 71.7974 34.993 71.9217C33.7938 72.2526 32.5656 72.4674 31.3249 72.5642C28.244 74.9474 26.1025 77.5517 26.7035 78.5464C27.3045 79.5411 30.3095 78.4704 33.5562 76.3359C34.0611 75.0153 34.7196 73.7586 35.518 72.5918C35.7736 72.2119 36.0292 71.8595 36.2779 71.528ZM35.5747 68.6128C35.2293 68.4678 34.8839 68.3089 34.5247 68.1293C33.6416 67.6988 32.8098 67.1705 32.0447 66.5543C28.9154 66.4576 26.3181 66.948 25.945 67.8253C25.572 68.7026 27.5684 69.6628 30.601 70.1671C31.7998 69.6054 33.0549 69.1724 34.345 68.8753C34.7457 68.7717 35.1809 68.6888 35.5747 68.6128ZM37.3134 66.2503C37.2028 65.9602 37.0992 65.6632 37.0094 65.3592C36.7837 64.6106 36.6651 63.8338 36.6571 63.052C34.9232 61.5184 33.2032 60.6895 32.4502 61.0694C31.6973 61.4494 32.0565 62.9 33.293 64.6615C34.352 64.9054 35.3792 65.2715 36.3532 65.753C36.6917 65.9119 37.0094 66.0845 37.3134 66.2503ZM42.9329 66.8513C43.2645 66.7477 43.6237 66.651 43.9622 66.5681C44.8672 66.3388 45.7928 66.2047 46.7254 66.1674C48.3626 64.6684 49.0602 63.2799 48.4454 62.7688C47.8306 62.2576 46.2626 62.6651 44.4181 63.6875C44.224 64.5205 43.9 65.3178 43.4579 66.05C43.2783 66.2987 43.1126 66.5957 42.9329 66.8513ZM39.2918 73.0822C39.1122 73.4553 38.898 73.849 38.6701 74.2428C38.0204 75.3726 37.2565 76.4327 36.3905 77.4066C36.0313 81.4408 36.6392 84.9086 38.0069 85.0053C39.3747 85.102 40.625 81.9658 41.2191 78.1734C40.5107 76.9663 39.9605 75.6731 39.5819 74.3257C39.4714 73.8974 39.3747 73.4829 39.2918 73.0822ZM40.2706 65.6079C40.4157 65.3385 40.5815 65.076 40.7542 64.8135C41.1938 64.149 41.7135 63.5412 42.3016 63.0036C42.2532 61.0625 41.6868 59.6809 40.92 59.598C40.1532 59.5151 39.3243 60.6411 38.8476 62.4165C39.3411 63.1251 39.7274 63.9025 39.9943 64.7237C40.0979 65.0138 40.1877 65.3109 40.2706 65.6079ZM52.7746 70.1809C52.6434 69.352 50.6401 68.5023 47.9874 68.0464C47.0811 68.5536 46.1128 68.9414 45.1069 69.2C44.7338 69.3036 44.3677 69.3865 44.0016 69.4625C44.3608 69.6007 44.6924 69.7665 45.093 69.9461C46.0708 70.4146 47.0008 70.9767 47.87 71.6247C50.8473 71.6661 52.9197 71.072 52.7746 70.1809ZM42.5875 72.122C42.7464 72.4882 42.8984 72.8681 43.0435 73.2757C43.452 74.4095 43.7391 75.5835 43.9 76.778C46.532 79.3822 49.157 80.8674 49.9237 79.9763C50.6905 79.0852 49.4056 76.626 47.2918 74.0632C46.0545 73.7632 44.8578 73.3155 43.7274 72.7299C43.306 72.5158 42.9329 72.3293 42.5875 72.122Z" fill="#E0D7F5"/>
<path d="M47.8707 71.625C46.9883 70.9747 46.0443 70.4125 45.0523 69.9463C44.6944 69.7698 44.3304 69.6062 43.9608 69.4559C44.3269 69.3868 44.6931 69.3039 45.0661 69.2003C46.0816 68.9439 47.0592 68.5561 47.9743 68.0467C48.7825 67.5631 49.1832 67.0727 48.9898 66.7065C48.7963 66.3404 47.919 66.1263 46.7378 66.1677C45.8052 66.2085 44.8796 66.3425 43.9746 66.5684C43.6154 66.6513 43.2838 66.748 42.9454 66.8516C43.125 66.596 43.2908 66.3266 43.4496 66.0503C43.8964 65.3196 44.2229 64.522 44.4167 63.6878C44.5687 62.9348 44.472 62.3891 44.1059 62.2302C43.7398 62.0713 43.0352 62.3546 42.3098 62.997C41.7173 63.5321 41.195 64.1403 40.7556 64.8069C40.5803 65.0652 40.4188 65.3327 40.272 65.6082C40.196 65.318 40.1062 65.021 40.0026 64.7309C39.7192 63.9041 39.314 63.1241 38.8006 62.4167C38.2963 61.7259 37.7783 61.3736 37.3707 61.4496C36.9631 61.5256 36.6799 62.1404 36.6799 63.0592C36.6875 63.8411 36.8063 64.6183 37.0322 65.3664C37.122 65.6704 37.2256 65.9674 37.3361 66.2575C37.0322 66.0917 36.7144 65.919 36.3759 65.7602C35.3951 65.2756 34.3612 64.907 33.295 64.6618C32.2381 64.4338 31.4161 64.4546 31.119 64.7723C30.822 65.0901 31.1674 65.8085 32.0447 66.5546C32.8098 67.1708 33.6416 67.6991 34.5246 68.1296C34.8769 68.3092 35.2154 68.468 35.5746 68.6131C35.1809 68.6891 34.7664 68.772 34.3381 68.8756C33.0503 69.1731 31.7976 69.6061 30.6009 70.1674C29.3644 70.7615 28.5908 71.397 28.6391 71.8875C28.6875 72.3779 29.772 72.668 31.3401 72.5782C32.5782 72.4812 33.8041 72.2661 35.0013 71.9358C35.4503 71.8115 35.8855 71.6802 36.2861 71.5421C36.0375 71.8736 35.7819 72.2329 35.5263 72.6059C34.7279 73.7727 34.0694 75.0294 33.5644 76.35C33.0602 77.7315 32.9842 78.8299 33.5092 79.1131C34.0342 79.3963 35.2085 78.7125 36.3967 77.4069C37.2627 76.433 38.0266 75.3728 38.6763 74.243C38.9042 73.8493 39.1184 73.4555 39.298 73.0825C39.3809 73.4832 39.4845 73.8977 39.6088 74.3259C39.983 75.6629 40.5262 76.9466 41.2253 78.146C41.9644 79.3687 42.745 80.0802 43.2977 79.8661C43.8503 79.6519 44.0921 78.4016 43.8848 76.7782C43.7261 75.5841 43.4413 74.4101 43.0352 73.2759C42.8901 72.8684 42.7381 72.4884 42.5792 72.1223C42.9246 72.3296 43.27 72.5299 43.6914 72.7302C44.8305 73.3181 46.0366 73.7657 47.2835 74.0634C48.4855 74.3259 49.3559 74.2638 49.5079 73.8009C49.6598 73.3381 49.0243 72.5161 47.8707 71.625Z" fill="#F8F3FF"/>
</g>
</g>
<rect x="0.5" y="1.23047" width="143" height="143" rx="5.5" stroke="#4D66E5" stroke-opacity="0.2"/>
</g>
<defs>
<filter id="filter0_b_903_130" x="-4" y="-3.26953" width="152" height="152" filterUnits="userSpaceOnUse" color-interpolation-filters="sRGB">
<feFlood flood-opacity="0" result="BackgroundImageFix"/>
<feGaussianBlur in="BackgroundImageFix" stdDeviation="2"/>
<feComposite in2="SourceAlpha" operator="in" result="effect1_backgroundBlur_903_130"/>
<feBlend mode="normal" in="SourceGraphic" in2="effect1_backgroundBlur_903_130" result="shape"/>
</filter>
<radialGradient id="paint0_radial_903_130" cx="0" cy="0" r="1" gradientUnits="userSpaceOnUse" gradientTransform="translate(72 72.7305) rotate(45) scale(101.823)">
<stop offset="0.791667" stop-color="#9363F6"/>
<stop offset="1" stop-color="#9865FD"/>
</radialGradient>
<radialGradient id="paint1_radial_903_130" cx="0" cy="0" r="1" gradientUnits="userSpaceOnUse" gradientTransform="translate(72 72.7305) rotate(45) scale(101.823)">
<stop offset="0.458333" stop-color="#5C6BB9" stop-opacity="0.15"/>
<stop offset="1" stop-opacity="0"/>
</radialGradient>
<radialGradient id="paint2_radial_903_130" cx="0" cy="0" r="1" gradientUnits="userSpaceOnUse" gradientTransform="translate(72 72.7305) rotate(45) scale(101.823)">
<stop stop-color="#4D66E5" stop-opacity="0.3"/>
<stop offset="0.7" stop-opacity="0"/>
</radialGradient>
<linearGradient id="paint3_linear_903_130" x1="54.7303" y1="64.4473" x2="118.974" y2="85.171" gradientUnits="userSpaceOnUse">
<stop stop-color="#FBF6FF"/>
<stop offset="1" stop-color="#DADBFF"/>
</linearGradient>
<clipPath id="clip0_903_130">
<rect width="93.9474" height="26.25" fill="white" transform="translate(25.0263 59.6113)"/>
</clipPath>
</defs>
</svg>
