<svg width="35" height="25" viewBox="0 0 35 25" fill="none" xmlns="http://www.w3.org/2000/svg">
<path fill-rule="evenodd" clip-rule="evenodd" d="M16.0898 2.51352C15.0188 4.06152 14.5098 4.84952 14.5098 4.95752C14.5098 5.06752 15.8148 6.99752 18.7978 11.2975C21.1578 14.6955 23.2548 17.7135 23.4598 18.0035L23.8338 18.5305L24.4288 17.3185C25.2328 15.6785 25.4288 15.1985 25.5808 14.4885C25.8908 13.0385 25.6278 11.2965 24.9128 10.0585C24.7118 9.71052 18.1498 0.584516 17.9198 0.332516C17.8678 0.275516 17.7898 0.228516 17.7478 0.228516C17.7058 0.228516 16.9598 1.25652 16.0898 2.51352ZM13.2458 10.2345C11.7728 10.5285 10.3408 11.3375 9.44884 12.3795C8.75484 13.1895 0.955838 23.9095 0.951838 24.0595L0.947838 24.2085L4.35684 24.2235C7.20684 24.2365 7.77984 24.2255 7.85384 24.1555C7.90184 24.1105 8.84584 22.8505 9.95084 21.3555C11.0558 19.8615 11.9788 18.6385 12.0008 18.6385C12.0238 18.6385 12.4168 19.2345 12.8738 19.9635C13.7998 21.4385 14.2208 21.9985 14.7538 22.4635C15.9078 23.4735 17.3198 24.0555 18.9048 24.1755C19.2728 24.2035 23.0288 24.2085 27.2508 24.1875C34.3408 24.1515 34.9288 24.1415 34.9478 24.0495C34.9698 23.9415 31.5108 18.8525 31.3008 18.6825C31.1788 18.5845 30.6248 18.5785 21.6128 18.5785C16.3558 18.5785 12.0568 18.5585 12.0588 18.5335C12.0608 18.5095 13.4158 16.6655 15.0708 14.4375C16.7258 12.2095 18.0728 10.3785 18.0638 10.3685C18.0238 10.3245 14.9788 10.1195 14.4138 10.1235C14.0638 10.1255 13.5468 10.1745 13.2458 10.2345Z" fill="#9966FF"/>
</svg>
