<svg width="144" height="145" viewBox="0 0 144 145" fill="none" xmlns="http://www.w3.org/2000/svg">
<g filter="url(#filter0_b_903_83)">
<rect y="0.730469" width="144" height="144" rx="6" fill="#0E0A0F"/>
<rect y="0.730469" width="144" height="144" rx="6" fill="url(#paint0_radial_903_83)" fill-opacity="0.57"/>
<rect y="0.730469" width="144" height="144" rx="6" fill="url(#paint1_radial_903_83)"/>
<rect y="0.730469" width="144" height="144" rx="6" fill="url(#paint2_radial_903_83)"/>
<g clip-path="url(#clip0_903_83)">
<path d="M118.993 71.771V70.1128H116.94V67.5322L116.871 67.5537L114.944 68.1458L114.906 68.1572V70.1121H111.862V69.0246C111.862 68.5171 111.976 68.1297 112.198 67.8706C112.419 67.6155 112.735 67.4852 113.139 67.4852C113.429 67.4852 113.729 67.5537 114.031 67.6886L114.106 67.7222V65.9754L114.07 65.962C113.789 65.8613 113.406 65.8096 112.931 65.8096C112.332 65.8096 111.788 65.9405 111.313 66.1989C110.845 66.452 110.46 66.8345 110.204 67.3006C109.943 67.7705 109.811 68.3143 109.811 68.9158V70.1121H108.382V71.771H109.811V78.7609H111.862V71.7703H114.906V76.2126C114.906 78.0413 115.766 78.9684 117.461 78.9684C117.739 78.9684 118.033 78.9355 118.332 78.8717C118.637 78.8059 118.844 78.7401 118.966 78.6696L118.993 78.6535V76.9799L118.91 77.0349C118.799 77.1095 118.66 77.1705 118.497 77.2162C118.366 77.2568 118.229 77.2798 118.092 77.2847C117.695 77.2847 117.401 77.1773 117.219 76.9658C117.034 76.7516 116.941 76.3777 116.941 75.8541V71.771H118.993ZM103.8 77.2853C103.055 77.2853 102.468 77.0369 102.054 76.5489C101.638 76.0588 101.427 75.3586 101.427 74.4698C101.427 73.5527 101.638 72.8351 102.054 72.3356C102.468 71.8395 103.05 71.5877 103.783 71.5877C104.495 71.5877 105.06 71.8287 105.467 72.3034C105.874 72.78 106.081 73.4916 106.081 74.4201C106.081 75.3593 105.886 76.0803 105.503 76.563C105.122 77.0416 104.549 77.2853 103.8 77.2853ZM103.891 69.904C102.47 69.904 101.342 70.3216 100.537 71.146C99.7328 71.9704 99.3253 73.111 99.3253 74.5362C99.3253 75.8903 99.7234 76.9799 100.508 77.7734C101.293 78.5669 102.362 78.9684 103.683 78.9684C105.06 78.9684 106.166 78.5454 106.97 77.7096C107.775 76.8752 108.182 75.7453 108.182 74.353C108.182 72.9774 107.8 71.8804 107.046 71.0923C106.291 70.3035 105.23 69.904 103.891 69.904ZM96.017 69.904C95.0509 69.904 94.2513 70.1524 93.6404 70.6412C93.0262 71.1332 92.7147 71.7791 92.7147 72.5598C92.7147 72.966 92.7818 73.3265 92.914 73.6326C93.0476 73.9394 93.2537 74.21 93.5276 74.4362C93.7989 74.6611 94.2185 74.8967 94.7743 75.1364C95.2416 75.3297 95.59 75.4929 95.8115 75.6218C96.0284 75.748 96.1814 75.8742 96.268 75.9977C96.3526 76.1186 96.3956 76.2844 96.3956 76.4878C96.3956 77.0692 95.9619 77.3518 95.0697 77.3518C94.7387 77.3518 94.3614 77.2827 93.9479 77.1457C93.5373 77.011 93.1499 76.8141 92.7993 76.5616L92.7147 76.4999V78.483L92.7455 78.4971C93.0362 78.6314 93.4021 78.7455 93.8331 78.8348C94.2641 78.9241 94.6555 78.969 94.9952 78.969C96.0438 78.969 96.8883 78.72 97.5046 78.2279C98.1249 77.7324 98.4391 77.0719 98.4391 76.2636C98.4391 75.6802 98.2699 75.1807 97.9363 74.7772C97.6053 74.3778 97.03 74.0106 96.2284 73.6857C95.59 73.4285 95.1805 73.215 95.0113 73.0512C94.8488 72.8928 94.7663 72.6686 94.7663 72.3846C94.7663 72.1335 94.8683 71.9315 95.0778 71.769C95.2886 71.6045 95.5826 71.5206 95.9505 71.5206C96.2929 71.5206 96.6426 71.5757 96.9904 71.6817C97.3381 71.7878 97.6429 71.9301 97.898 72.1047L97.9819 72.1617V70.28L97.9497 70.2666C97.7148 70.1652 97.4046 70.0786 97.028 70.0081C96.6948 69.9426 96.3564 69.9076 96.017 69.9034V69.904ZM87.3655 77.2853C86.621 77.2853 86.0336 77.0369 85.62 76.5489C85.2038 76.0588 84.993 75.3593 84.993 74.4698C84.993 73.5527 85.2038 72.8351 85.6207 72.3356C86.0342 71.8395 86.6156 71.5877 87.3494 71.5877C88.061 71.5877 88.6269 71.8287 89.0324 72.3034C89.4406 72.78 89.6473 73.4916 89.6473 74.4201C89.6473 75.3593 89.4527 76.0803 89.0687 76.563C88.688 77.0416 88.1154 77.2853 87.3655 77.2853ZM87.4575 69.904C86.0362 69.904 84.9077 70.3216 84.1035 71.146C83.2992 71.9704 82.891 73.111 82.891 74.5362C82.891 75.891 83.2898 76.9799 84.0746 77.7734C84.8601 78.5669 85.9275 78.9684 87.2493 78.9684C88.6262 78.9684 89.7333 78.5454 90.5369 77.7096C91.3411 76.8752 91.7486 75.7453 91.7486 74.353C91.7486 72.9774 91.366 71.8804 90.6114 71.0923C89.8568 70.3035 88.7954 69.904 87.4575 69.904ZM79.7767 71.6092V70.1121H77.75V78.7596H79.7767V74.3355C79.7767 73.5836 79.9466 72.966 80.2822 72.4987C80.6132 72.0375 81.0543 71.8039 81.5927 71.8039C81.7753 71.8039 81.98 71.8341 82.2023 71.8939C82.4218 71.9529 82.5809 72.0181 82.6749 72.0859L82.7601 72.1476V70.0967L82.7266 70.0826C82.5386 70.002 82.2714 69.9618 81.9337 69.9618C81.4242 69.9618 80.9683 70.1256 80.5776 70.4492C80.2352 70.7338 79.9875 71.1232 79.7989 71.6092H79.7767ZM74.1207 69.9034C73.1903 69.9034 72.3618 70.1034 71.6556 70.4982C70.959 70.8832 70.3931 71.4673 70.0303 72.1758C69.6597 72.8915 69.4718 73.7279 69.4718 74.6611C69.4718 75.4781 69.6544 76.228 70.0149 76.8886C70.3617 77.537 70.8883 78.0715 71.5314 78.428C72.1759 78.7864 72.9211 78.9684 73.7468 78.9684C74.7102 78.9684 75.5326 78.775 76.1918 78.3944L76.2187 78.3789V76.5153L76.1334 76.5778C75.8302 76.7982 75.4961 76.9726 75.1418 77.0954C74.7833 77.2209 74.4571 77.2847 74.1704 77.2847C73.3756 77.2847 72.7371 77.0349 72.2732 76.5422C71.8093 76.0494 71.5737 75.3573 71.5737 74.4859C71.5737 73.6091 71.8194 72.8989 72.3034 72.3745C72.7855 71.8522 73.4246 71.5871 74.204 71.5871C74.8699 71.5871 75.5198 71.814 76.1334 72.2611L76.2187 72.3228V70.3605L76.1911 70.3451C75.9602 70.2149 75.6447 70.1081 75.2533 70.0269C74.8809 69.9477 74.5014 69.9067 74.1207 69.9047V69.9034ZM68.0761 70.1115H66.0493V78.7596H68.0767V70.1121L68.0761 70.1115ZM67.0832 66.4272C66.7502 66.4272 66.4588 66.5413 66.2198 66.7676C66.103 66.8752 66.0103 67.0065 65.9479 67.1527C65.8855 67.2988 65.8549 67.4566 65.858 67.6155C65.858 67.9471 65.9788 68.2264 66.2165 68.4479C66.4521 68.6674 66.7441 68.7789 67.0838 68.7789C67.4228 68.7789 67.7155 68.6674 67.9545 68.4479C68.0714 68.3435 68.1643 68.215 68.2268 68.0713C68.2894 67.9276 68.3202 67.7721 68.3171 67.6155C68.3171 67.2905 68.1989 67.0086 67.9646 66.7763C67.731 66.5447 67.4343 66.4272 67.0832 66.4272ZM62.0267 69.4737V78.7596H64.0944V66.693H61.2325L57.5939 75.656L54.0626 66.693H51.0833V78.7603H53.0268V69.473H53.0939L56.8225 78.7603H58.2894L61.9595 69.4744L62.0267 69.4737Z" fill="url(#paint3_linear_903_83)"/>
<path d="M34.5409 72.23H25.0067V62.6602H34.5409V72.23Z" fill="url(#paint4_linear_903_83)"/>
<path d="M45.0681 72.23H35.5338V62.6602H45.0681V72.23Z" fill="url(#paint5_linear_903_83)"/>
<path d="M34.5409 82.8003H25.0067V73.2305H34.5409V82.8003Z" fill="url(#paint6_linear_903_83)"/>
<path d="M45.0681 82.8003H35.5338V73.2305H45.0681V82.8003Z" fill="url(#paint7_linear_903_83)"/>
</g>
<rect x="0.5" y="1.23047" width="143" height="143" rx="5.5" stroke="#9966FF" stroke-opacity="0.2"/>
</g>
<defs>
<filter id="filter0_b_903_83" x="-4" y="-3.26953" width="152" height="152" filterUnits="userSpaceOnUse" color-interpolation-filters="sRGB">
<feFlood flood-opacity="0" result="BackgroundImageFix"/>
<feGaussianBlur in="BackgroundImageFix" stdDeviation="2"/>
<feComposite in2="SourceAlpha" operator="in" result="effect1_backgroundBlur_903_83"/>
<feBlend mode="normal" in="SourceGraphic" in2="effect1_backgroundBlur_903_83" result="shape"/>
</filter>
<radialGradient id="paint0_radial_903_83" cx="0" cy="0" r="1" gradientUnits="userSpaceOnUse" gradientTransform="translate(72 72.7305) rotate(45) scale(101.823)">
<stop offset="0.791667" stop-color="#9363F6"/>
<stop offset="1" stop-color="#9865FD"/>
</radialGradient>
<radialGradient id="paint1_radial_903_83" cx="0" cy="0" r="1" gradientUnits="userSpaceOnUse" gradientTransform="translate(72 72.7305) rotate(45) scale(101.823)">
<stop stop-color="#9966FF" stop-opacity="0.15"/>
<stop offset="0.8" stop-opacity="0"/>
</radialGradient>
<radialGradient id="paint2_radial_903_83" cx="0" cy="0" r="1" gradientUnits="userSpaceOnUse" gradientTransform="translate(72 72.7305) rotate(45) scale(101.823)">
<stop stop-color="#9966FF" stop-opacity="0.25"/>
<stop offset="0.8" stop-opacity="0"/>
</radialGradient>
<linearGradient id="paint3_linear_903_83" x1="25.0067" y1="69.7093" x2="118.993" y2="82.8003" gradientUnits="userSpaceOnUse">
<stop offset="0.179" stop-color="#FFEEFF"/>
<stop offset="1" stop-color="#F7E6FF"/>
</linearGradient>
<linearGradient id="paint4_linear_903_83" x1="25.0067" y1="69.7092" x2="118.993" y2="82.8002" gradientUnits="userSpaceOnUse">
<stop offset="0.179" stop-color="#FFEEFF"/>
<stop offset="1" stop-color="#F7E6FF"/>
</linearGradient>
<linearGradient id="paint5_linear_903_83" x1="25.0067" y1="69.7092" x2="118.993" y2="82.8002" gradientUnits="userSpaceOnUse">
<stop offset="0.179" stop-color="#FFEEFF"/>
<stop offset="1" stop-color="#F7E6FF"/>
</linearGradient>
<linearGradient id="paint6_linear_903_83" x1="25.0067" y1="69.7093" x2="118.993" y2="82.8003" gradientUnits="userSpaceOnUse">
<stop offset="0.179" stop-color="#FFEEFF"/>
<stop offset="1" stop-color="#F7E6FF"/>
</linearGradient>
<linearGradient id="paint7_linear_903_83" x1="25.0067" y1="69.7093" x2="118.993" y2="82.8003" gradientUnits="userSpaceOnUse">
<stop offset="0.179" stop-color="#FFEEFF"/>
<stop offset="1" stop-color="#F7E6FF"/>
</linearGradient>
<clipPath id="clip0_903_83">
<rect width="93.9867" height="20.14" fill="white" transform="translate(25.0067 62.6602)"/>
</clipPath>
</defs>
</svg>
