<svg width="157" height="32" viewBox="0 0 157 32" fill="none" xmlns="http://www.w3.org/2000/svg">
<path fill-rule="evenodd" clip-rule="evenodd" d="M135.918 24.2957V29.1473C135.918 29.8268 136.191 30.4782 136.677 30.9581C137.163 31.4392 137.822 31.7094 138.509 31.7094H141.807C142.493 31.7088 143.152 31.4391 143.642 30.9581C143.882 30.7206 144.073 30.4379 144.203 30.1263C144.333 29.8147 144.4 29.4805 144.4 29.1428L144.396 21.3984H148.811C150.979 21.3984 153.059 20.5462 154.591 19.0325C155.349 18.2859 155.95 17.3964 156.361 16.4156C156.773 15.4347 156.985 14.3821 156.986 13.3186V8.65199C156.966 6.50917 156.098 4.4615 154.572 2.95716C153.036 1.44265 150.969 0.587083 148.811 0.572266H144.09C141.932 0.587145 139.865 1.44316 138.329 2.95829C136.803 4.46287 135.935 6.51111 135.916 8.65424V9.85734C135.916 11.2701 136.483 12.6268 137.492 13.6281C138.507 14.6315 139.875 15.1961 141.301 15.2001L147.826 15.2248C148.577 15.2247 149.299 14.9286 149.834 14.4006C150.367 13.8737 150.666 13.1605 150.667 12.416V9.59272C150.667 9.22314 150.593 8.85731 150.45 8.51643C150.307 8.17556 150.098 7.86644 149.835 7.60699C149.3 7.07923 148.578 6.78357 147.826 6.78399H145.084C144.336 6.78401 143.617 7.07748 143.083 7.60138C142.82 7.85883 142.61 8.16569 142.466 8.50434C142.322 8.84298 142.246 9.20676 142.243 9.57478L142.22 13.0585L140.998 13.054C140.228 13.0463 139.492 12.7376 138.947 12.194C138.406 11.6534 138.102 10.9202 138.101 10.1556V8.65311C138.104 7.87447 138.261 7.10414 138.563 6.3864C138.865 5.66866 139.306 5.01767 139.86 4.47085C140.988 3.36 142.507 2.73597 144.09 2.73291H148.814C150.397 2.73597 151.915 3.36 153.043 4.47085C153.598 5.01741 154.039 5.66835 154.341 6.38615C154.643 7.10395 154.799 7.8744 154.802 8.65311V13.3186C154.802 14.8884 154.171 16.3942 153.047 17.5043C151.919 18.617 150.398 19.2403 148.814 19.2388H141.034C139.678 19.2388 138.376 19.7714 137.416 20.7189C136.942 21.1861 136.565 21.743 136.308 22.357C136.051 22.971 135.918 23.63 135.918 24.2957ZM147.833 13.0619L144.406 13.0574L144.428 9.58487C144.429 9.49976 144.446 9.4156 144.48 9.33727C144.513 9.25893 144.561 9.18798 144.622 9.12852C144.746 9.00755 144.912 8.93989 145.084 8.94016H147.826C148 8.94026 148.166 9.00873 148.29 9.13077C148.413 9.25186 148.483 9.41669 148.483 9.58936V12.4127C148.483 12.4977 148.466 12.582 148.433 12.6605C148.401 12.739 148.353 12.8103 148.292 12.8701C148.17 12.9915 148.005 13.0603 147.833 13.0619ZM138.1 28.8334V24.2732H138.103C138.103 23.5108 138.408 22.782 138.952 22.2427C139.499 21.7028 140.236 21.3995 141.004 21.3984H142.205V28.8334C142.205 28.9279 142.186 29.0215 142.15 29.1087C142.114 29.1959 142.061 29.2751 141.993 29.3415C141.926 29.408 141.846 29.4604 141.759 29.4958C141.671 29.5312 141.577 29.5488 141.483 29.5476H138.823C138.632 29.548 138.448 29.473 138.312 29.3391C138.245 29.2732 138.192 29.1946 138.155 29.108C138.119 29.0214 138.1 28.9273 138.1 28.8334ZM12.0267 16.6846C11.0277 15.6979 9.47026 15.2124 7.35782 15.2281L0.0125122 15.2517V31.7083H3.32581V26.0022H7.18851C9.33346 26.0022 10.9256 25.5089 11.965 24.5222C12.4859 24.0189 12.8948 23.4114 13.1648 22.7394C13.4339 22.0666 13.5572 21.349 13.5258 20.6269C13.5602 19.9033 13.4449 19.1804 13.1872 18.5033C12.9288 17.8241 12.5338 17.2051 12.0267 16.6846ZM9.29086 22.7954C8.62322 23.2487 7.82778 23.4759 7.02145 23.4435L3.32468 23.4458L3.34935 17.7868H7.02032C7.83099 17.7532 8.63044 17.9774 9.30095 18.4259C9.61938 18.695 9.86606 19.0348 10.0208 19.4194C10.1755 19.8028 10.2338 20.2177 10.189 20.6281C10.2289 21.0347 10.1677 21.4449 10.0107 21.8222C9.85372 22.1989 9.60705 22.5331 9.28973 22.7943L9.29086 22.7954ZM17.633 20.1044V22.283C17.8949 21.5701 18.3732 20.957 19.0009 20.5294C19.6227 20.1543 20.3392 19.9655 21.0651 19.9856H22.0765V22.6127H21.0909C20.1836 22.5927 19.3046 22.9288 18.6421 23.5489C17.9693 24.1723 17.6341 25.2577 17.6341 26.805V31.7049H14.3914V20.1044H17.633ZM24.9278 31.234C25.8986 31.737 26.9798 31.9891 28.0729 31.9673C29.1737 31.9908 30.263 31.7387 31.2416 31.234C32.1437 30.7544 32.8861 30.0217 33.3775 29.126C33.8822 28.1276 34.1451 27.0245 34.1451 25.9058C34.1451 24.7871 33.8822 23.684 33.3775 22.6856C32.8856 21.7905 32.1433 21.0583 31.2416 20.5787C30.2596 20.0954 29.1797 19.8441 28.0853 19.8441C26.9908 19.8441 25.9109 20.0954 24.9289 20.5787C24.0284 21.0566 23.2891 21.7899 22.8042 22.6867C22.3074 23.6873 22.0489 24.7892 22.0489 25.9063C22.0489 27.0235 22.3074 28.1254 22.8042 29.126C23.2886 30.0228 24.0275 30.7562 24.9278 31.234ZM29.23 29.2381C28.8712 29.4142 28.4732 29.4983 28.0729 29.4815C27.5292 29.4978 26.9958 29.3312 26.5581 29.0083C26.1317 28.6791 25.8071 28.2359 25.6219 27.7301C25.4056 27.1466 25.2999 26.528 25.3102 25.9058C25.2731 24.9951 25.526 24.0961 26.0322 23.3381C26.259 23.012 26.565 22.7488 26.9214 22.5734C27.2789 22.3974 27.6748 22.3141 28.0729 22.3312C28.4732 22.3144 28.8712 22.3985 29.2289 22.5746C29.5877 22.7506 29.8961 23.0118 30.1259 23.337C30.6037 24.1086 30.8568 24.9982 30.8568 25.9058C30.8568 26.8134 30.6037 27.7029 30.1259 28.4746C29.8957 28.8003 29.5873 29.0629 29.2289 29.2381H29.23ZM46.6991 27.517C46.6351 28.1658 46.4345 28.7936 46.1105 29.3592C45.7853 29.9266 45.3447 30.4199 44.8154 30.8068C43.6902 31.5993 42.3386 32.0064 40.9628 31.9673C39.8697 31.9891 38.7885 31.737 37.8177 31.234C36.9174 30.7562 36.1785 30.0228 35.6941 29.126C35.1973 28.1254 34.9387 27.0235 34.9387 25.9063C34.9387 24.7892 35.1973 23.6873 35.6941 22.6867C36.1787 21.7901 36.9176 21.0568 37.8177 20.5787C38.7884 20.0753 39.8696 19.8228 40.9628 19.8443C42.3353 19.8038 43.6837 20.2112 44.8042 21.0048C45.3312 21.3961 45.7718 21.8895 46.0981 22.4557C46.4233 23.0219 46.6285 23.6476 46.7002 24.2957H43.3365C43.2146 23.7266 42.9069 23.2142 42.4619 22.8392C42.0364 22.4992 41.5051 22.3191 40.9606 22.3301C40.5624 22.3134 40.1664 22.397 39.809 22.5734C39.4529 22.7482 39.147 23.0106 38.9199 23.3359C38.4495 24.1103 38.2007 24.9991 38.2007 25.9052C38.2007 26.8114 38.4495 27.7001 38.9199 28.4746C39.1487 28.7996 39.4554 29.062 39.8119 29.2377C40.1685 29.4134 40.5634 29.4969 40.9606 29.4803C41.5055 29.4915 42.037 29.3121 42.4608 28.9724C42.9082 28.5957 43.2154 28.0844 43.3376 27.5159H46.7002L46.6991 27.517ZM55.5592 30.263L55.6075 31.7071H58.8501V20.1056H55.6097V26.6167C55.6278 27.1845 55.5254 27.7496 55.3092 28.275C55.1332 28.6888 54.8311 29.0365 54.4458 29.2684C54.0395 29.4972 53.5788 29.6115 53.1127 29.5992C52.8228 29.6067 52.5349 29.5502 52.2694 29.4337C52.0039 29.3172 51.7673 29.1436 51.5766 28.9253C51.1102 28.2503 50.8977 27.4321 50.9767 26.6155V20.1044H47.7363V27.0898C47.6972 28.0698 47.9078 29.0437 48.3485 29.9199C48.6949 30.5926 49.2444 31.142 49.9205 31.4941C50.5625 31.8099 51.2692 31.9719 51.9847 31.9673C52.6939 31.9855 53.3985 31.8481 54.0489 31.5647C54.6566 31.2689 55.177 30.8204 55.5592 30.263ZM63.5739 20.1044V22.283C63.8359 21.5701 64.3142 20.957 64.9419 20.5294C65.5637 20.1542 66.2801 19.9655 67.0061 19.9856H68.0152V22.6127H67.0296C66.1224 22.5927 65.2433 22.9288 64.5808 23.5489C63.9092 24.1723 63.5739 25.2577 63.5728 26.805V31.7049H60.3324V20.1044H63.5739ZM72.1212 28.7594C71.6469 28.2542 71.3737 27.593 71.3532 26.9003L79.9005 26.9048V26.0751C79.9325 24.9061 79.6769 23.7471 79.1559 22.7001C78.6971 21.7992 77.9784 21.0566 77.0928 20.5686C76.1462 20.0712 75.0886 19.8228 74.0195 19.8466C72.9263 19.8251 71.845 20.0775 70.8744 20.581C69.9743 21.059 69.2354 21.7924 68.7507 22.6889C68.2285 23.68 67.9684 24.7881 67.995 25.908C67.9692 27.0259 68.2473 28.1281 68.799 29.1047C69.3198 30.0056 70.0853 30.7403 71.0067 31.2239C71.9867 31.7318 73.081 31.9886 74.1877 31.9695C75.032 31.9729 75.8696 31.8237 76.66 31.5322C77.4326 31.2474 78.1245 30.7791 78.676 30.1677C79.2546 29.514 79.6291 28.7078 79.7569 27.8478H76.5389C76.4793 28.1332 76.3537 28.4006 76.1723 28.6288C75.9908 28.857 75.7585 29.0395 75.4939 29.1619C75.0205 29.3685 74.5102 29.4772 73.9937 29.4815C73.6486 29.4976 73.3038 29.4418 72.9815 29.3175C72.6591 29.1932 72.3661 29.0031 72.1212 28.7594ZM72.979 22.4983C73.3102 22.3714 73.664 22.3141 74.0184 22.3301C74.6879 22.3303 75.3304 22.5941 75.8068 23.0645C76.327 23.5568 76.6399 24.225 76.6825 24.9359H71.2579C71.3124 24.234 71.6093 23.5728 72.0977 23.0657C72.3488 22.8179 72.6493 22.625 72.979 22.4983ZM77.0413 17.8081V15.2517H91.853V17.8081H86.1155V31.7071H82.7787V17.8081H77.0413ZM92.7904 28.7594C92.316 28.2542 92.0428 27.593 92.0223 26.9003L100.57 26.9048V26.0751C100.602 24.9061 100.346 23.7471 99.8251 22.7001C99.3662 21.7991 98.6475 21.0566 97.762 20.5686C96.8157 20.0714 95.7585 19.823 94.6898 19.8466C93.5961 19.8249 92.5145 20.0774 91.5435 20.581C90.643 21.0589 89.9038 21.7922 89.4187 22.6889C88.8965 23.68 88.6364 24.7881 88.663 25.908C88.6384 27.0259 88.9153 28.1281 89.467 29.1047C89.9881 30.0057 90.754 30.7406 91.6758 31.2239C92.6558 31.7318 93.7501 31.9886 94.8568 31.9695C95.7011 31.9729 96.5387 31.8237 97.3292 31.5322C98.1017 31.2473 98.7936 30.779 99.3452 30.1677C99.9237 29.514 100.298 28.7078 100.426 27.8478H97.2081C97.1466 28.1323 97.0205 28.3988 96.8394 28.6266C96.6584 28.8545 96.4274 29.0377 96.1642 29.1619C95.6904 29.3686 95.1797 29.4773 94.6628 29.4815C94.3177 29.4978 93.9729 29.442 93.6505 29.3177C93.3281 29.1934 93.0352 29.0032 92.7904 28.7594ZM93.6481 22.4983C93.979 22.3715 94.3324 22.3143 94.6864 22.3301H94.6841C95.3544 22.3297 95.9978 22.5936 96.4748 23.0645C96.9962 23.5568 97.309 24.225 97.3516 24.9359H91.9259C91.9807 24.2338 92.278 23.5726 92.7668 23.0657C93.0168 22.8179 93.3173 22.625 93.6481 22.4983ZM113.243 27.517C113.18 28.1659 112.979 28.7939 112.654 29.3592C112.329 29.9273 111.888 30.4205 111.359 30.8068C110.234 31.5994 108.883 32.0065 107.507 31.9673C106.414 31.9891 105.332 31.7371 104.362 31.234C103.461 30.7562 102.722 30.0228 102.238 29.126C101.741 28.1254 101.483 27.0235 101.483 25.9063C101.483 24.7892 101.741 23.6873 102.238 22.6867C102.723 21.7901 103.462 21.0568 104.362 20.5787C105.332 20.0753 106.414 19.8228 107.507 19.8443C108.879 19.8041 110.227 20.2114 111.347 21.0048C111.874 21.3961 112.315 21.8895 112.641 22.4557C112.967 23.0219 113.172 23.6476 113.243 24.2957H109.883C109.761 23.7264 109.453 23.214 109.007 22.8392C108.581 22.4992 108.05 22.3191 107.506 22.3301C107.107 22.3134 106.711 22.3971 106.354 22.5734C105.998 22.7485 105.693 23.0108 105.466 23.3359C104.996 24.1103 104.747 24.9991 104.747 25.9052C104.747 26.8114 104.996 27.7001 105.466 28.4746C105.691 28.7997 105.998 29.0621 106.354 29.2381C106.711 29.4142 107.108 29.4983 107.506 29.4815C108.052 29.4927 108.582 29.311 109.007 28.9724C109.453 28.5957 109.762 28.0844 109.883 27.5159L113.243 27.517ZM117.703 21.5486L117.656 15.2517H114.41V31.7071H117.652V25.1949C117.633 24.6276 117.735 24.0628 117.951 23.5377C118.126 23.1251 118.429 22.7764 118.816 22.5432C119.214 22.3162 119.666 22.2015 120.124 22.2113C120.418 22.2023 120.71 22.2581 120.98 22.3748C121.25 22.4914 121.49 22.6661 121.685 22.8863C122.151 23.5624 122.363 24.3798 122.285 25.1949V31.706H125.504V24.7206C125.542 23.7411 125.332 22.7678 124.892 21.8917C124.544 21.219 123.995 20.6696 123.319 20.3175C122.685 20.0034 121.986 19.8414 121.279 19.8443C120.57 19.8261 119.865 19.9635 119.215 20.2468C118.607 20.5427 118.086 20.9913 117.703 21.5486Z" fill="url(#paint0_radial_903_231)"/>
<defs>
<radialGradient id="paint0_radial_903_231" cx="0" cy="0" r="1" gradientUnits="userSpaceOnUse" gradientTransform="translate(156.988 0.573243) rotate(167.32) scale(160.899 804.403)">
<stop offset="0.431" stop-color="#C8CEFF"/>
<stop offset="1" stop-color="#A098FF"/>
</radialGradient>
</defs>
</svg>
