<svg width="144" height="145" viewBox="0 0 144 145" fill="none" xmlns="http://www.w3.org/2000/svg">
<g filter="url(#filter0_b_903_112)">
<rect y="0.730469" width="144" height="144" rx="6" fill="#0E0A0F"/>
<rect y="0.730469" width="144" height="144" rx="6" fill="url(#paint0_radial_903_112)" fill-opacity="0.57"/>
<rect y="0.730469" width="144" height="144" rx="6" fill="url(#paint1_radial_903_112)"/>
<rect y="0.730469" width="144" height="144" rx="6" fill="url(#paint2_radial_903_112)"/>
<g clip-path="url(#clip0_903_112)">
<path d="M25.0086 75.4868L26.6752 74.4749C27.2172 75.5714 28.2178 76.2036 29.3844 76.2036C30.385 76.2036 31.135 75.8245 31.135 75.0651C31.135 74.307 30.427 73.9686 29.1344 73.5896C27.3012 73.1259 25.4253 72.6623 25.4253 70.5546C25.4253 68.6574 26.8839 67.5615 29.0091 67.5615C31.0517 67.5615 32.2609 68.5728 32.9689 69.6273L31.427 70.8071C30.885 69.9643 29.9264 69.3741 28.9678 69.3741C28.0511 69.3741 27.5092 69.7958 27.5092 70.386C27.5092 71.1868 28.2592 71.4825 29.5517 71.8615C31.3017 72.3252 33.1776 72.9154 33.1776 74.9811C33.1776 76.5832 31.9683 78.0588 29.1764 78.0588C27.0925 77.9742 25.7586 76.9623 25.0086 75.4868ZM33.6362 77.805L37.1781 67.6881H39.2614L42.8046 77.8063H40.5953L39.8454 75.572H36.4695L35.7189 77.8063H33.6362V77.805ZM36.9695 73.9267H39.304L38.1787 70.512H38.1367L36.9695 73.9267ZM43.8885 67.7301H47.5143C49.6402 67.7301 51.5988 68.3203 51.5988 70.9756C51.5988 73.6742 49.5149 74.2644 47.5143 74.2644H46.0971V77.8483H43.8885V67.7288V67.7301ZM46.0557 72.4937H47.5563C48.9316 72.4937 49.4316 71.9455 49.4316 70.9762C49.4316 70.0489 48.9316 69.5007 47.5563 69.5007H46.0557V72.4937ZM55.4333 77.8056L58.9339 67.6875H61.0178L64.519 77.8056H62.3097L61.5598 75.6979H58.1839L57.4339 77.8056H55.4333ZM58.7259 74.0112H61.0598L59.9345 70.6385H59.8925L58.7259 74.0112ZM65.8109 77.8056V70.6385H67.8948V71.9035H67.8115C68.1868 71.0602 68.8954 70.2169 70.2287 70.2169H70.3121L70.2707 72.2406H69.7287C68.8534 72.2406 68.2701 72.7469 67.8528 73.2945V77.8056H65.8109ZM71.646 69.3735V67.6875H73.7293V69.3741H71.646V69.3735ZM71.646 77.805V70.6385H73.7293V77.8056L71.646 77.805ZM77.4804 76.9197V77.805H75.3965V67.6875H77.4804V71.6504C77.8971 70.9762 78.6477 70.386 79.6897 70.386C81.3149 70.386 82.4402 71.6504 82.4402 74.1378C82.4402 76.6252 81.2736 77.8896 79.6477 77.8896C78.731 77.8896 77.8971 77.5099 77.4804 76.9197ZM80.3143 74.1378C80.3143 72.9148 79.8563 72.156 78.8977 72.156C78.3557 72.156 77.8971 72.4931 77.4804 72.8722V75.5288C77.8971 75.9924 78.3557 76.2029 78.939 76.2029C79.8563 76.2449 80.3143 75.4868 80.3143 74.1378ZM83.3155 75.9078C83.3155 74.2218 84.5655 73.2938 87.9 73.0413V72.9148C87.9 72.3665 87.608 72.0295 86.9 72.0295C85.9827 72.0295 85.1908 72.4085 84.5241 72.9148L83.6069 71.6498C84.3155 71.017 85.3988 70.3428 87.1914 70.3428C89.1506 70.3428 89.9839 71.3127 89.9839 73.1673V75.9498C89.9839 76.8351 89.9839 77.2994 90.1506 77.7204H87.9833C87.9 77.2994 87.8167 77.0463 87.8167 76.6666C87.15 77.4253 86.3994 77.847 85.3574 77.847C84.2735 77.889 83.3155 77.1728 83.3155 75.9078ZM87.9 75.6127V74.2637C86.2334 74.4329 85.4408 74.854 85.4408 75.5281C85.4408 75.9918 85.7741 76.2029 86.2327 76.2029C87.0247 76.2449 87.4833 75.9924 87.9 75.6127Z" fill="url(#paint3_linear_903_112)"/>
<path d="M115.991 81.2624L106.571 63.6406H108.655C109.072 63.6406 109.406 63.8511 109.572 64.1889L118.991 81.8106H116.907C116.532 81.8106 116.157 81.6001 115.991 81.2624ZM98.3196 81.8106H100.403C100.82 81.8106 101.153 81.6001 101.32 81.2624L103.904 76.4567L102.571 73.9274L98.3196 81.8106ZM94.2764 81.8106C94.6937 81.8106 95.027 81.6001 95.1937 81.2624L102.529 67.5616L109.864 81.2624C110.03 81.6001 110.364 81.8106 110.781 81.8106H112.865L103.445 64.1889C103.279 63.8511 102.945 63.6406 102.529 63.6406C102.153 63.6406 101.779 63.8511 101.612 64.1889L92.1925 81.8106H94.2764Z" fill="url(#paint4_linear_903_112)"/>
</g>
<rect x="0.5" y="1.23047" width="143" height="143" rx="5.5" stroke="#9966FF" stroke-opacity="0.2"/>
</g>
<defs>
<filter id="filter0_b_903_112" x="-4" y="-3.26953" width="152" height="152" filterUnits="userSpaceOnUse" color-interpolation-filters="sRGB">
<feFlood flood-opacity="0" result="BackgroundImageFix"/>
<feGaussianBlur in="BackgroundImageFix" stdDeviation="2"/>
<feComposite in2="SourceAlpha" operator="in" result="effect1_backgroundBlur_903_112"/>
<feBlend mode="normal" in="SourceGraphic" in2="effect1_backgroundBlur_903_112" result="shape"/>
</filter>
<radialGradient id="paint0_radial_903_112" cx="0" cy="0" r="1" gradientUnits="userSpaceOnUse" gradientTransform="translate(72 72.7305) rotate(45) scale(101.823)">
<stop offset="0.791667" stop-color="#9363F6"/>
<stop offset="1" stop-color="#9865FD"/>
</radialGradient>
<radialGradient id="paint1_radial_903_112" cx="0" cy="0" r="1" gradientUnits="userSpaceOnUse" gradientTransform="translate(72 72.7305) rotate(45) scale(101.823)">
<stop stop-color="#9966FF" stop-opacity="0.15"/>
<stop offset="0.8" stop-opacity="0"/>
</radialGradient>
<radialGradient id="paint2_radial_903_112" cx="0" cy="0" r="1" gradientUnits="userSpaceOnUse" gradientTransform="translate(72 72.7305) rotate(45) scale(101.823)">
<stop stop-color="#9966FF" stop-opacity="0.25"/>
<stop offset="0.8" stop-opacity="0"/>
</radialGradient>
<linearGradient id="paint3_linear_903_112" x1="25.0086" y1="69.2795" x2="118.991" y2="76.1716" gradientUnits="userSpaceOnUse">
<stop stop-color="#FFF1FF"/>
<stop offset="0.489" stop-color="#FFF6FF"/>
<stop offset="0.733" stop-color="#EAD5FF"/>
</linearGradient>
<linearGradient id="paint4_linear_903_112" x1="25.0086" y1="69.2796" x2="118.991" y2="76.1717" gradientUnits="userSpaceOnUse">
<stop stop-color="#FFF1FF"/>
<stop offset="0.489" stop-color="#FFF6FF"/>
<stop offset="0.733" stop-color="#EAD5FF"/>
</linearGradient>
<clipPath id="clip0_903_112">
<rect width="93.9828" height="18.17" fill="white" transform="translate(25.0086 63.6406)"/>
</clipPath>
</defs>
</svg>
