<svg width="144" height="145" viewBox="0 0 144 145" fill="none" xmlns="http://www.w3.org/2000/svg">
<g filter="url(#filter0_b_903_95)">
<rect y="0.730469" width="144" height="144" rx="6" fill="#0E0A0F"/>
<rect y="0.730469" width="144" height="144" rx="6" fill="url(#paint0_radial_903_95)" fill-opacity="0.57"/>
<rect y="0.730469" width="144" height="144" rx="6" fill="url(#paint1_radial_903_95)"/>
<rect y="0.730469" width="144" height="144" rx="6" fill="url(#paint2_radial_903_95)"/>
<g clip-path="url(#clip0_903_95)">
<path fill-rule="evenodd" clip-rule="evenodd" d="M47.6307 70.0859C46.6842 70.084 45.7674 70.4158 45.0413 71.023V70.1812H42.6799V79.425H45.1359V73.5159C45.3995 73.1718 45.7364 72.8907 46.122 72.6927C46.5077 72.4948 46.9325 72.3851 47.3658 72.3715C47.701 72.3542 48.0364 72.4047 48.3517 72.52V70.1498C48.1136 70.1079 47.8725 70.0866 47.6307 70.0859Z" fill="url(#paint3_linear_903_95)"/>
<path fill-rule="evenodd" clip-rule="evenodd" d="M26.2128 76.604C26.9132 77.1996 27.804 77.524 28.7233 77.5185C29.3847 77.5185 29.8946 77.194 29.8946 76.7374C29.8946 75.3456 25.4543 75.8417 25.4543 72.8677C25.4543 71.0958 27.1549 69.9902 28.9688 69.9902C30.071 69.9935 31.1482 70.3192 32.0674 70.9273L30.9181 72.7155C30.4117 72.329 29.7978 72.1092 29.1611 72.0867C28.4809 72.0867 27.914 72.3535 27.914 72.8295C27.914 74.0303 32.3549 73.5542 32.3549 76.7562C32.3549 78.5288 30.6337 79.6149 28.7076 79.6149C27.3799 79.6017 26.0903 79.1694 25.0227 78.3797L26.2128 76.604Z" fill="url(#paint4_linear_903_95)"/>
<path fill-rule="evenodd" clip-rule="evenodd" d="M41.6314 74.7168C41.6314 72.1437 39.8381 69.9902 37.3032 69.9902C34.5823 69.9902 32.8435 72.2389 32.8435 74.8126C32.8168 75.4517 32.9228 76.0895 33.1548 76.6856C33.3868 77.2818 33.7398 77.8234 34.1914 78.2764C34.6418 78.7282 35.1818 79.0807 35.7767 79.3112C36.3715 79.5418 37.008 79.6452 37.6452 79.6149C38.3543 79.6246 39.0571 79.4816 39.706 79.1957C40.3549 78.9097 40.9346 78.4874 41.4059 77.9576L40.0072 76.547C39.7148 76.8711 39.3598 77.1326 38.9637 77.3161C38.5676 77.4995 38.1385 77.6009 37.7022 77.6143C37.0892 77.6341 36.4918 77.4188 36.0323 77.0124C35.5717 76.6048 35.2831 76.0375 35.2249 75.4252H41.5744C41.6139 75.1909 41.6326 74.9535 41.6308 74.7168H41.6314ZM35.3383 73.6119C35.426 73.154 35.6709 72.7412 36.0298 72.4456C36.3882 72.1497 36.8391 71.989 37.3038 71.9915C37.7514 71.9925 38.1829 72.1579 38.5165 72.4562C38.851 72.7553 39.0649 73.1663 39.1178 73.6119H35.3383Z" fill="url(#paint5_linear_903_95)"/>
<path fill-rule="evenodd" clip-rule="evenodd" d="M54.2063 75.8213L56.7192 70.1797H59.271L55.0569 79.4236H53.3563L49.1421 70.1797H51.6927L54.2063 75.8213Z" fill="url(#paint6_linear_903_95)"/>
<path fill-rule="evenodd" clip-rule="evenodd" d="M61.3337 65.8401C61.6448 65.847 61.9469 65.9454 62.2025 66.1229C62.458 66.3005 62.6556 66.5494 62.7705 66.8385C62.8855 67.1287 62.9127 67.4462 62.8486 67.7517C62.7846 68.0572 62.6322 68.3371 62.4104 68.5566C62.1889 68.775 61.9078 68.923 61.6023 68.9818C61.2969 69.0407 60.9809 69.0078 60.6942 68.8874C60.4075 68.7662 60.163 68.5631 59.9914 68.3036C59.8616 68.1071 59.7772 67.8842 59.744 67.6511C59.7109 67.4179 59.7299 67.1803 59.7997 66.9555C59.8695 66.7306 59.9884 66.524 60.1477 66.3506C60.307 66.1772 60.5029 66.0414 60.7211 65.9528C60.9153 65.8745 61.1238 65.8363 61.3337 65.8401Z" fill="url(#paint7_linear_903_95)"/>
<path d="M62.5613 70.1797H60.1053V79.4236H62.5613V70.1797Z" fill="url(#paint8_linear_903_95)"/>
<path fill-rule="evenodd" clip-rule="evenodd" d="M72.7172 77.5374C72.2528 78.205 71.6282 78.7454 70.9007 79.109C70.1746 79.4718 69.3687 79.6458 68.5575 79.6151C67.9169 79.6316 67.2795 79.5188 66.6835 79.2835C66.0874 79.0483 65.5448 78.6954 65.0881 78.2459C64.3984 77.5666 63.9284 76.696 63.739 75.7467C63.5496 74.7974 63.6495 73.813 64.0258 72.9211C64.2763 72.3292 64.6421 71.7937 65.1012 71.3458C65.5597 70.8981 66.1036 70.5474 66.7005 70.3145C67.2975 70.0816 67.9352 69.9714 68.5757 69.9904C69.316 69.9849 70.0478 70.1486 70.7153 70.4689C71.384 70.7896 71.9709 71.2583 72.4316 71.8394L70.6928 73.3828C70.4515 73.0453 70.1342 72.7694 69.7665 72.5774C69.3988 72.3853 68.9911 72.2825 68.5763 72.2772C68.2466 72.2757 67.9199 72.3406 67.6158 72.4683C67.3118 72.5959 67.0366 72.7836 66.8068 73.0201C66.5759 73.2568 66.3948 73.5374 66.2742 73.8453C66.1536 74.1532 66.096 74.4822 66.1047 74.8128C66.0938 75.1481 66.1521 75.4822 66.2758 75.7941C66.3995 76.1061 66.586 76.3893 66.8237 76.6261C67.0613 76.8617 67.345 77.0457 67.6571 77.1664C67.9691 77.2871 68.3028 77.342 68.6371 77.3276C69.0738 77.3188 69.5018 77.2031 69.8835 76.9906C70.2659 76.7778 70.5906 76.4749 70.8293 76.1081L72.7172 77.5374Z" fill="url(#paint9_linear_903_95)"/>
<path fill-rule="evenodd" clip-rule="evenodd" d="M81.641 77.9576C81.1687 78.4871 80.5884 78.9091 79.9392 79.1953C79.2909 79.4811 78.5888 79.6242 77.8803 79.6149C77.2433 79.645 76.607 79.5413 76.0124 79.3107C75.4178 79.08 74.878 78.7275 74.4278 78.2758C73.9763 77.8227 73.6236 77.281 73.3918 76.6849C73.16 76.0887 73.0542 75.451 73.0811 74.812C73.0811 72.2389 74.8193 69.9902 77.5408 69.9902C80.072 69.9902 81.8671 72.1437 81.8671 74.7168C81.8688 74.9531 81.8499 75.189 81.8108 75.4221H75.4613C75.5188 76.0346 75.807 76.6025 76.2674 77.0105C76.7272 77.4177 77.3247 77.6331 77.9373 77.6137C78.3737 77.6008 78.803 77.4996 79.1992 77.3162C79.5953 77.1327 79.9502 76.8709 80.2423 76.5464L81.641 77.9576ZM79.3548 73.6125C79.3018 73.1669 79.088 72.7559 78.7535 72.4569C78.4198 72.1583 77.988 71.9929 77.5402 71.9921C77.0757 71.9897 76.625 72.1504 76.2668 72.4462C75.9076 72.7426 75.663 73.1551 75.5753 73.6125H79.3548Z" fill="url(#paint10_linear_903_95)"/>
<path fill-rule="evenodd" clip-rule="evenodd" d="M82.8442 79.4245V70.1807H85.2056V70.9235C85.932 70.3178 86.8486 69.9873 87.7944 69.9903C88.4004 69.9894 88.9991 70.1223 89.5479 70.3793C90.0967 70.6363 90.5821 71.0112 90.9694 71.4772C91.6763 72.4032 92.013 73.5592 91.914 74.7199V79.4245H89.4574V74.5239C89.492 74.2126 89.4611 73.8975 89.3668 73.5989C89.2726 73.3002 89.1169 73.0245 88.9099 72.7895C88.5364 72.4421 88.0404 72.2572 87.5307 72.2752C87.0973 72.2879 86.6722 72.3971 86.2865 72.595C85.9007 72.7929 85.564 73.0744 85.3008 73.419V79.4245H82.8442Z" fill="url(#paint11_linear_903_95)"/>
<path fill-rule="evenodd" clip-rule="evenodd" d="M98.2396 69.9895C97.1613 69.9876 96.1074 70.3109 95.2155 70.9172C94.322 71.525 93.6312 72.3868 93.2325 73.3913C92.833 74.3977 92.7436 75.5006 92.9757 76.5582C93.2072 77.6148 93.75 78.5778 94.5341 79.323C94.7174 79.4986 94.9577 79.6025 95.2112 79.6157C95.4648 79.6289 95.7146 79.5506 95.9152 79.395C96.5772 78.8999 97.3817 78.6324 98.2083 78.6324C99.035 78.6324 99.8394 78.8999 100.501 79.395C100.704 79.5512 100.956 79.629 101.211 79.6141C101.467 79.5991 101.708 79.4924 101.891 79.3136C102.668 78.571 103.207 77.6138 103.439 76.5638C103.671 75.5129 103.586 74.4167 103.194 73.4145C102.802 72.4134 102.121 71.5519 101.237 70.9404C100.356 70.3304 99.3116 69.9987 98.2396 69.9883M98.2083 78.0909C97.8537 78.1006 97.5009 78.0376 97.1716 77.9058C96.8422 77.7739 96.5434 77.576 96.2935 77.3243C96.0427 77.072 95.8456 76.7715 95.7144 76.4408C95.5831 76.1102 95.5204 75.7563 95.53 75.4007C95.53 74.6866 95.8125 74.0026 96.3148 73.4978C96.563 73.2482 96.858 73.0501 97.1829 72.9149C97.5079 72.7796 97.8563 72.71 98.2083 72.7098C98.9186 72.7098 99.5995 72.9929 100.102 73.4978C100.605 74.0034 100.887 74.6876 100.887 75.4007C100.896 75.7563 100.833 76.1102 100.702 76.4408C100.571 76.7715 100.374 77.072 100.123 77.3243C99.8727 77.5754 99.5738 77.7729 99.2446 77.9047C98.9154 78.0365 98.5628 78.0999 98.2083 78.0909Z" fill="url(#paint12_linear_903_95)"/>
<path fill-rule="evenodd" clip-rule="evenodd" d="M108.426 79.4236H106.596L102.947 70.1797H105.4L107.401 75.4624L109.363 70.1797H111.412L113.356 75.4624L115.373 70.1797H117.827L114.179 79.4236H112.349L110.387 74.1602L108.426 79.4236Z" fill="url(#paint13_linear_903_95)"/>
<path d="M117.855 78.3788H117.648V78.7703H117.471V77.6992H117.901C117.969 77.6987 118.036 77.7186 118.093 77.7565C118.149 77.7944 118.193 77.8484 118.219 77.9116C118.253 77.9951 118.252 78.0886 118.217 78.1716C118.182 78.2547 118.116 78.3206 118.033 78.355L118.275 78.7722H118.083L117.855 78.3788ZM117.648 78.221H117.901C117.949 78.221 117.995 78.202 118.029 78.1682C118.062 78.1345 118.081 78.0887 118.081 78.0409C118.081 77.9932 118.062 77.9473 118.029 77.9136C117.995 77.8798 117.949 77.8608 117.901 77.8608H117.65L117.648 78.221Z" fill="url(#paint14_linear_903_95)"/>
<path d="M117.83 77.2607C118.026 77.2606 118.218 77.3188 118.38 77.428C118.543 77.5372 118.67 77.6925 118.744 77.8739C118.819 78.0557 118.838 78.2553 118.8 78.448C118.762 78.6407 118.668 78.8179 118.53 78.9576C118.392 79.0962 118.216 79.1907 118.024 79.2291C117.832 79.2675 117.633 79.2479 117.452 79.173C117.271 79.0978 117.116 78.9703 117.007 78.8068C116.898 78.6433 116.841 78.4511 116.841 78.2548C116.842 77.9917 116.946 77.7386 117.131 77.5526C117.223 77.4605 117.332 77.3873 117.452 77.3372C117.571 77.2871 117.7 77.2611 117.83 77.2607ZM117.83 77.1041C117.602 77.1038 117.38 77.1714 117.191 77.2981C117.002 77.4249 116.855 77.6051 116.769 77.8157C116.683 78.0264 116.66 78.2579 116.705 78.4814C116.749 78.7048 116.858 78.9103 117.018 79.0722C117.178 79.2329 117.383 79.3425 117.606 79.387C117.828 79.4314 118.059 79.4089 118.269 79.3221C118.444 79.2492 118.598 79.1343 118.718 78.9876C118.838 78.841 118.92 78.667 118.957 78.4812C118.993 78.2953 118.984 78.1033 118.929 77.922C118.874 77.7407 118.775 77.5758 118.641 77.4418C118.535 77.3346 118.408 77.2496 118.269 77.1916C118.13 77.1335 117.981 77.1042 117.83 77.1041Z" fill="url(#paint15_linear_903_95)"/>
</g>
<rect x="0.5" y="1.23047" width="143" height="143" rx="5.5" stroke="#CB6AFB" stroke-opacity="0.2"/>
</g>
<defs>
<filter id="filter0_b_903_95" x="-4" y="-3.26953" width="152" height="152" filterUnits="userSpaceOnUse" color-interpolation-filters="sRGB">
<feFlood flood-opacity="0" result="BackgroundImageFix"/>
<feGaussianBlur in="BackgroundImageFix" stdDeviation="2"/>
<feComposite in2="SourceAlpha" operator="in" result="effect1_backgroundBlur_903_95"/>
<feBlend mode="normal" in="SourceGraphic" in2="effect1_backgroundBlur_903_95" result="shape"/>
</filter>
<radialGradient id="paint0_radial_903_95" cx="0" cy="0" r="1" gradientUnits="userSpaceOnUse" gradientTransform="translate(72 72.7305) rotate(45) scale(101.823)">
<stop offset="0.791667" stop-color="#9363F6"/>
<stop offset="1" stop-color="#9865FD"/>
</radialGradient>
<radialGradient id="paint1_radial_903_95" cx="0" cy="0" r="1" gradientUnits="userSpaceOnUse" gradientTransform="translate(72 72.7305) rotate(45) scale(101.823)">
<stop stop-color="#CB6AFB" stop-opacity="0.15"/>
<stop offset="0.7" stop-opacity="0"/>
</radialGradient>
<radialGradient id="paint2_radial_903_95" cx="0" cy="0" r="1" gradientUnits="userSpaceOnUse" gradientTransform="translate(72 72.7305) rotate(45) scale(101.823)">
<stop stop-color="#CB6AFB" stop-opacity="0.3"/>
<stop offset="0.7" stop-opacity="0"/>
</radialGradient>
<linearGradient id="paint3_linear_903_95" x1="25.0227" y1="72.7305" x2="118.977" y2="79.6205" gradientUnits="userSpaceOnUse">
<stop stop-color="#FFECFF"/>
<stop offset="0.536" stop-color="#FFF1FF"/>
<stop offset="1" stop-color="#FFDCFF"/>
</linearGradient>
<linearGradient id="paint4_linear_903_95" x1="25.0227" y1="72.73" x2="118.977" y2="79.62" gradientUnits="userSpaceOnUse">
<stop stop-color="#FFECFF"/>
<stop offset="0.536" stop-color="#FFF1FF"/>
<stop offset="1" stop-color="#FFDCFF"/>
</linearGradient>
<linearGradient id="paint5_linear_903_95" x1="25.0227" y1="72.7299" x2="118.977" y2="79.6199" gradientUnits="userSpaceOnUse">
<stop stop-color="#FFECFF"/>
<stop offset="0.536" stop-color="#FFF1FF"/>
<stop offset="1" stop-color="#FFDCFF"/>
</linearGradient>
<linearGradient id="paint6_linear_903_95" x1="25.0227" y1="72.729" x2="118.977" y2="79.619" gradientUnits="userSpaceOnUse">
<stop stop-color="#FFECFF"/>
<stop offset="0.536" stop-color="#FFF1FF"/>
<stop offset="1" stop-color="#FFDCFF"/>
</linearGradient>
<linearGradient id="paint7_linear_903_95" x1="25.0227" y1="72.7301" x2="118.977" y2="79.6201" gradientUnits="userSpaceOnUse">
<stop stop-color="#FFECFF"/>
<stop offset="0.536" stop-color="#FFF1FF"/>
<stop offset="1" stop-color="#FFDCFF"/>
</linearGradient>
<linearGradient id="paint8_linear_903_95" x1="25.0227" y1="72.729" x2="118.977" y2="79.619" gradientUnits="userSpaceOnUse">
<stop stop-color="#FFECFF"/>
<stop offset="0.536" stop-color="#FFF1FF"/>
<stop offset="1" stop-color="#FFDCFF"/>
</linearGradient>
<linearGradient id="paint9_linear_903_95" x1="25.0227" y1="72.7301" x2="118.977" y2="79.6201" gradientUnits="userSpaceOnUse">
<stop stop-color="#FFECFF"/>
<stop offset="0.536" stop-color="#FFF1FF"/>
<stop offset="1" stop-color="#FFDCFF"/>
</linearGradient>
<linearGradient id="paint10_linear_903_95" x1="25.0227" y1="72.7306" x2="118.977" y2="79.6206" gradientUnits="userSpaceOnUse">
<stop stop-color="#FFECFF"/>
<stop offset="0.536" stop-color="#FFF1FF"/>
<stop offset="1" stop-color="#FFDCFF"/>
</linearGradient>
<linearGradient id="paint11_linear_903_95" x1="25.0227" y1="72.73" x2="118.977" y2="79.62" gradientUnits="userSpaceOnUse">
<stop stop-color="#FFECFF"/>
<stop offset="0.536" stop-color="#FFF1FF"/>
<stop offset="1" stop-color="#FFDCFF"/>
</linearGradient>
<linearGradient id="paint12_linear_903_95" x1="25.0227" y1="72.7292" x2="118.977" y2="79.6192" gradientUnits="userSpaceOnUse">
<stop stop-color="#FFECFF"/>
<stop offset="0.536" stop-color="#FFF1FF"/>
<stop offset="1" stop-color="#FFDCFF"/>
</linearGradient>
<linearGradient id="paint13_linear_903_95" x1="25.0228" y1="72.729" x2="118.977" y2="79.619" gradientUnits="userSpaceOnUse">
<stop stop-color="#FFECFF"/>
<stop offset="0.536" stop-color="#FFF1FF"/>
<stop offset="1" stop-color="#FFDCFF"/>
</linearGradient>
<linearGradient id="paint14_linear_903_95" x1="25.023" y1="72.729" x2="118.977" y2="79.619" gradientUnits="userSpaceOnUse">
<stop stop-color="#FFECFF"/>
<stop offset="0.536" stop-color="#FFF1FF"/>
<stop offset="1" stop-color="#FFDCFF"/>
</linearGradient>
<linearGradient id="paint15_linear_903_95" x1="25.0228" y1="72.7296" x2="118.977" y2="79.6196" gradientUnits="userSpaceOnUse">
<stop stop-color="#FFECFF"/>
<stop offset="0.536" stop-color="#FFF1FF"/>
<stop offset="1" stop-color="#FFDCFF"/>
</linearGradient>
<clipPath id="clip0_903_95">
<rect width="93.9545" height="13.78" fill="white" transform="translate(25.0227 65.8398)"/>
</clipPath>
</defs>
</svg>
