<svg width="118" height="27" viewBox="0 0 118 27" fill="none" xmlns="http://www.w3.org/2000/svg">
<path fill-rule="evenodd" clip-rule="evenodd" d="M15.1118 5.31327C15.1118 5.19309 15.6793 4.31619 16.8711 2.59356C17.8393 1.19475 18.6694 0.0507812 18.7162 0.0507812C18.7629 0.0507812 18.8497 0.103084 18.9076 0.166514C19.1635 0.446943 26.4658 10.6025 26.6895 10.9897C27.4851 12.3674 27.7778 14.3059 27.4328 15.9195C27.2637 16.7096 27.0456 17.2437 26.1509 19.0687L25.4888 20.4175L25.0737 19.831C24.8444 19.5083 22.5098 16.1498 19.8846 12.3674C16.5651 7.58452 15.1118 5.43679 15.1118 5.31327ZM9.48096 13.5726C10.4736 12.413 12.0671 11.5139 13.7063 11.1856C14.0401 11.1188 14.6166 11.0632 15.0072 11.0621C15.6348 11.0576 19.0244 11.2857 19.0678 11.3347C19.0778 11.3458 17.5789 13.3834 15.7372 15.8638C13.8955 18.3421 12.3876 20.393 12.3854 20.4208C12.3832 20.4486 17.1672 20.4709 23.0172 20.4709C33.0459 20.4709 33.6624 20.4776 33.7981 20.5866C34.0318 20.7758 37.881 26.44 37.8566 26.5591C37.8354 26.6615 37.18 26.6726 29.2912 26.7127C24.5929 26.736 20.4132 26.7305 20.0037 26.6993C18.2399 26.5658 16.6686 25.9181 15.3833 24.7942C14.7913 24.2767 14.3228 23.6535 13.2923 22.0121C12.7838 21.1998 12.3464 20.5377 12.3209 20.5377C12.2964 20.5377 11.2692 21.8986 10.0396 23.5612C8.80993 25.2248 7.75943 26.627 7.70602 26.677C7.62367 26.7549 6.98603 26.7672 3.81451 26.7527L0.0209351 26.736L0.0253863 26.5702C0.0298376 26.4033 8.70866 14.4739 9.48096 13.5726ZM98.2177 14.5173C98.2177 8.57826 102.315 4.50203 108.113 4.50203C113.912 4.50203 117.98 8.43249 117.98 14.5173C117.98 20.6022 114.084 24.5327 108.113 24.5327C102.143 24.5327 98.2177 20.4564 98.2177 14.5173ZM114.72 14.5173C114.72 10.2664 112.066 7.50106 108.114 7.50106C104.161 7.50106 101.507 10.2664 101.507 14.5173C101.507 18.7683 104.161 21.5336 108.114 21.5336C112.066 21.5336 114.72 18.7683 114.72 14.5173ZM40.1623 7.99626H46.0023C46.0469 7.99626 46.0825 8.03187 46.0825 8.07638V24.0141C46.0825 24.0586 46.1192 24.0953 46.1626 24.0953H49.234C49.2785 24.0953 49.3141 24.0597 49.3141 24.0141V8.0775C49.3141 8.03299 49.3497 7.99626 49.3942 7.99626H55.2632C55.3077 7.99626 55.3433 7.95954 55.3433 7.91503V5.01949C55.3433 4.99814 55.3349 4.97764 55.3199 4.96244C55.3049 4.94723 55.2845 4.93855 55.2632 4.93825H40.1623C40.141 4.93855 40.1206 4.94723 40.1056 4.96244C40.0906 4.97764 40.0822 4.99814 40.0822 5.01949V7.91503C40.0822 7.95954 40.1178 7.99515 40.1623 7.99515V7.99626ZM67.7556 4.93937H56.8679C56.8465 4.93966 56.8261 4.94835 56.8111 4.96355C56.7961 4.97875 56.7877 4.99925 56.7877 5.0206V24.0152C56.7877 24.0597 56.8233 24.0964 56.8679 24.0964H68.016C68.0605 24.0964 68.0961 24.0597 68.0961 24.0152V21.1197C68.0961 21.0983 68.0877 21.0778 68.0727 21.0626C68.0577 21.0474 68.0374 21.0387 68.016 21.0384H60.0995C60.0779 21.0384 60.0573 21.0299 60.042 21.0146C60.0268 20.9994 60.0182 20.9787 60.0182 20.9572V16.0252C60.0182 15.9807 60.0549 15.944 60.0995 15.944H67.4674C67.5119 15.944 67.5486 15.9072 67.5486 15.8627V12.9394C67.5486 12.9178 67.5401 12.8972 67.5248 12.8819C67.5096 12.8667 67.4889 12.8581 67.4674 12.8581H60.0995C60.0779 12.8581 60.0573 12.8496 60.042 12.8343C60.0268 12.8191 60.0182 12.7985 60.0182 12.7769V8.0775C60.0182 8.03299 60.0549 7.99626 60.0995 7.99626H67.7556C67.8001 7.99626 67.8357 7.95954 67.8357 7.91503V5.0206C67.8357 4.99925 67.8273 4.97875 67.8123 4.96355C67.7973 4.94835 67.777 4.93966 67.7556 4.93937ZM77.3948 18.4456C76.8473 16.9321 75.9237 16.2044 74.5682 16.2044H72.9179C72.8966 16.2047 72.8762 16.2133 72.8612 16.2285C72.8462 16.2438 72.8378 16.2642 72.8378 16.2856V24.013C72.8378 24.0575 72.8022 24.0942 72.7566 24.0942H69.6874C69.6659 24.0942 69.6452 24.0857 69.63 24.0704C69.6148 24.0552 69.6062 24.0345 69.6062 24.013V5.0206C69.6062 4.97609 69.6429 4.93937 69.6874 4.93937H75.1736C78.9817 4.93937 81.2607 7.00586 81.2607 10.0917C81.2607 12.2862 80.1312 14.0711 77.9479 14.8467C77.8744 14.8723 77.8766 14.9747 77.9479 14.9992C79.1519 15.4176 80.0244 16.3268 80.5407 17.7478L82.8353 23.9863C82.84 23.9985 82.8416 24.0118 82.8401 24.0248C82.8385 24.0379 82.8338 24.0504 82.8264 24.0612C82.8189 24.072 82.809 24.0809 82.7974 24.087C82.7857 24.0932 82.7728 24.0964 82.7597 24.0964H79.4134C79.3966 24.0963 79.3802 24.0909 79.3666 24.0809C79.353 24.0709 79.3429 24.0569 79.3378 24.0408L77.3948 18.4456ZM75.1169 13.4379C76.8762 13.4379 77.9735 12.3028 77.9735 10.6147C77.9735 8.95551 76.8195 7.87719 75.0879 7.87719H72.9179C72.8966 7.87748 72.8762 7.88617 72.8612 7.90137C72.8462 7.91658 72.8378 7.93707 72.8378 7.95843V13.3578C72.8378 13.4023 72.8734 13.439 72.9179 13.439L75.1169 13.4379ZM83.8691 22.2692C83.8606 22.2825 83.8559 22.2979 83.8558 22.3137V24.013C83.8558 24.0575 83.8914 24.0953 83.9359 24.0953H98.1131C98.1576 24.0953 98.1933 24.0586 98.1933 24.0141V21.1185C98.1933 21.0972 98.1849 21.0767 98.1699 21.0615C98.1549 21.0463 98.1345 21.0376 98.1131 21.0373H88.7388C88.7243 21.0371 88.71 21.033 88.6976 21.0254C88.6852 21.0178 88.675 21.007 88.6682 20.9942C88.6614 20.9813 88.6582 20.9669 88.6588 20.9524C88.6595 20.9378 88.6641 20.9237 88.672 20.9116L89.5968 19.5239L98.1799 6.76327C98.1887 6.74967 98.1933 6.73382 98.1933 6.71764V5.0206C98.1933 4.99925 98.1849 4.97875 98.1699 4.96355C98.1549 4.94835 98.1345 4.93966 98.1131 4.93937H84.1963C84.1749 4.93966 84.1546 4.94835 84.1396 4.96355C84.1246 4.97875 84.1162 4.99925 84.1162 5.0206V7.91391C84.1162 7.95843 84.1518 7.99626 84.1963 7.99626H93.3102C93.3759 7.99626 93.4137 8.0686 93.377 8.12201L92.4233 9.53862L83.8691 22.2692Z" fill="url(#paint0_linear_903_254)"/>
<defs>
<linearGradient id="paint0_linear_903_254" x1="117.979" y1="11.1789" x2="-2.76109" y2="13.4045" gradientUnits="userSpaceOnUse">
<stop offset="0.159" stop-color="#EEA6FF"/>
<stop offset="0.52" stop-color="#986DC0"/>
</linearGradient>
</defs>
</svg>
