<svg width="144" height="145" viewBox="0 0 144 145" fill="none" xmlns="http://www.w3.org/2000/svg">
<g filter="url(#filter0_b_903_117)">
<rect y="0.730469" width="144" height="144" rx="6" fill="#0E0A0F"/>
<rect y="0.730469" width="144" height="144" rx="6" fill="url(#paint0_radial_903_117)" fill-opacity="0.57"/>
<rect y="0.730469" width="144" height="144" rx="6" fill="url(#paint1_radial_903_117)"/>
<rect y="0.730469" width="144" height="144" rx="6" fill="url(#paint2_radial_903_117)"/>
<g clip-path="url(#clip0_903_117)">
<path d="M73.0915 53.9565C76.4524 53.8411 79.8355 54.3459 83.0052 55.4702C87.7737 57.143 92.0355 60.2092 95.1541 64.1804C96.5256 65.9258 97.6749 67.8349 98.5755 69.8638C98.7353 70.2008 98.8581 70.5794 98.7722 70.9553C98.6675 71.5863 98.1143 72.1071 97.4787 72.1702C96.8175 72.2669 96.1348 71.8548 95.8992 71.2325C94.1083 67.0218 91.0528 63.3634 87.2401 60.8315C84.876 59.2538 82.247 58.1151 79.4791 57.4699C75.9031 56.6379 72.1839 56.6369 68.6075 57.4672C63.5228 58.6378 58.8664 61.5531 55.5826 65.6027C54.189 67.3125 53.0415 69.2088 52.1733 71.2365C51.9854 71.7064 51.5551 72.0756 51.0523 72.1582C50.8087 72.2033 50.5577 72.1872 50.3218 72.1113C50.0859 72.0354 49.8726 71.902 49.7011 71.7232C49.5048 71.5205 49.3702 71.2661 49.3129 70.9898C49.2556 70.7135 49.2781 70.4266 49.3776 70.1625C51.7632 64.5261 56.18 59.7917 61.6104 56.9731C65.164 55.1226 69.0872 54.0918 73.0915 53.9565Z" fill="url(#paint3_linear_903_117)"/>
<path d="M68.6505 71.3103C68.6304 71.0176 68.9076 70.7981 69.1821 70.7914C69.5392 70.782 69.897 70.7847 70.2548 70.79C70.5031 70.7981 70.7931 70.9639 70.7918 71.2425C70.8052 74.5175 70.7844 77.7939 70.8032 81.0702C72.1309 79.5948 73.4701 78.1275 74.8025 76.6561C75.065 76.3977 75.2724 76.0056 75.6805 75.9714C76.2309 75.9493 76.7813 75.9627 77.3324 75.9634C77.5446 75.9446 77.7815 76.1392 77.707 76.3654C77.6197 76.54 77.46 76.6601 77.3298 76.7984C75.8893 78.2376 74.4427 79.6713 73.0096 81.1159C74.3937 82.696 75.7597 84.2916 77.1378 85.8771C77.315 86.1026 77.5372 86.2946 77.6862 86.5429C77.7949 86.7376 77.6144 86.9739 77.4056 86.9833C76.9478 87.0088 76.4893 86.9833 76.0302 86.9947C75.7919 86.9886 75.5335 87.0235 75.3173 86.9007C75.0891 86.7698 74.9502 86.5355 74.7871 86.3389C73.4573 84.6654 72.1363 82.986 70.8018 81.3152C70.7884 82.9625 70.7978 84.6091 70.7965 86.2556C70.7918 86.4449 70.83 86.6738 70.6649 86.8128C70.4018 87.0672 70.0091 86.9779 69.6802 86.994C69.3882 86.9846 69.0465 87.0477 68.8096 86.8329C68.6773 86.7302 68.6431 86.555 68.6485 86.3986C68.6518 81.3683 68.6465 76.3386 68.6505 71.3103Z" fill="url(#paint4_linear_903_117)"/>
<path d="M62.5938 75.9362C63.261 75.7221 64.0121 75.6811 64.6653 75.9637C64.8942 76.0711 65.1607 76.3007 65.0573 76.5833C64.9526 76.9377 64.8626 77.2968 64.7384 77.6452C64.6465 77.8956 64.3558 77.9882 64.1115 77.9392C63.5611 77.8453 63.0214 77.664 62.4575 77.6821C62.0642 77.6727 61.701 77.8835 61.4319 78.1574C60.9976 78.5816 60.7727 79.175 60.672 79.7637C60.5915 80.1893 60.615 80.6242 60.6116 81.0538L60.6109 86.4755C60.6364 86.7729 60.329 86.9743 60.0605 86.985C59.6913 86.9897 59.3241 86.9944 58.9556 86.9816C58.6898 86.9682 58.3904 86.7735 58.4253 86.4748C58.4233 83.1287 58.4213 79.7838 58.4253 76.4383C58.4025 76.1054 58.7717 75.9248 59.061 75.9557C59.4235 75.9798 59.9195 75.8436 60.1551 76.2081C60.3344 76.6316 60.4196 77.0888 60.5881 77.5157C61.0942 76.8216 61.7655 76.2094 62.5938 75.9362Z" fill="url(#paint5_linear_903_117)"/>
<path d="M25.0125 76.1917C25.1152 76.0742 25.234 75.9474 25.4052 75.9595C25.9053 75.9548 26.4067 75.9434 26.9061 75.9662C27.1598 75.9742 27.335 76.1964 27.372 76.4327C27.8633 78.4303 28.3459 80.4307 28.8353 82.429C28.9789 83.0465 29.1535 83.6574 29.2474 84.2843C29.3441 84.8482 29.3629 85.4207 29.4548 85.9859C29.581 85.1791 29.6938 84.3682 29.9113 83.5802L31.8311 76.4267C31.8814 76.1541 32.1372 75.9615 32.4097 75.9615C32.9662 75.9474 33.524 75.9568 34.0798 75.9568C34.3785 75.9434 34.6973 76.1172 34.7698 76.4226C35.2477 78.1612 35.7196 79.9031 36.1962 81.6429C36.4848 82.7706 36.8634 83.8782 37.0265 85.0341C37.0715 85.3529 37.1158 85.6718 37.1809 85.9879C37.3608 84.1715 37.8287 82.4035 38.2133 80.6247C38.5308 79.2097 38.8416 77.7926 39.1625 76.3777C39.2101 76.093 39.5115 75.9501 39.776 75.9581C40.2257 75.9554 40.6768 75.9427 41.1265 75.9655C41.393 75.9736 41.5467 76.2676 41.4528 76.5059C40.5493 79.8359 39.6498 83.168 38.7463 86.4981C38.7227 86.6293 38.6549 86.7485 38.5542 86.8359C38.4534 86.9232 38.3258 86.9734 38.1925 86.978C37.4951 87.0009 36.7963 86.9834 36.0982 86.9868C35.8485 87.0022 35.584 86.8686 35.5404 86.6055C34.9161 84.3159 34.304 82.0215 33.6857 79.7299C33.4615 78.9324 33.3702 78.1061 33.2763 77.2865C33.1622 78.0162 33.1051 78.7586 32.9104 79.4755C32.2775 81.8356 31.6404 84.1964 31.0054 86.5558C30.9343 86.9384 30.4966 87.015 30.1717 86.9894C29.5226 86.978 28.8742 87.0049 28.2265 86.978C27.9955 86.978 27.817 86.7988 27.776 86.5807C26.8652 83.2653 25.9583 79.946 25.0461 76.6307C25.0145 76.4857 25.0192 76.3381 25.0118 76.1924L25.0125 76.1917Z" fill="url(#paint6_linear_903_117)"/>
<path d="M106.814 75.9657C107.288 75.9567 107.762 75.9567 108.236 75.9657C108.524 75.9698 108.795 76.1671 108.886 76.4423C109.703 78.5776 110.516 80.7182 111.333 82.8548C111.503 83.2884 111.623 83.7408 111.699 84.2C112.037 82.9326 112.486 81.6989 112.881 80.4477C113.32 79.0958 113.76 77.7425 114.202 76.3893C114.267 76.1544 114.492 75.9933 114.73 75.9731C115.116 75.9449 115.506 75.9698 115.893 75.9597C116.119 75.9624 116.389 75.9355 116.562 76.1174C116.674 76.2114 116.65 76.3692 116.603 76.492C115.296 80.2174 113.993 83.9449 112.688 87.6717C112.461 88.2926 112.287 88.9417 111.922 89.5001C111.398 90.3506 110.549 90.9635 109.616 91.2944C109.289 91.3951 108.953 91.6186 108.603 91.4938C108.354 91.43 108.258 91.1716 108.125 90.9816C108.03 90.8091 107.854 90.6493 107.89 90.4345C107.907 90.2217 108.078 90.0486 108.279 89.9915C108.673 89.8559 109.073 89.7062 109.391 89.429C110.166 88.7739 110.645 87.8052 110.828 86.8198C110.704 86.3822 110.475 85.9794 110.31 85.5559C109.063 82.6614 107.817 79.7657 106.567 76.8726C106.492 76.6833 106.381 76.5027 106.36 76.2973C106.363 76.0711 106.622 75.9724 106.814 75.9657Z" fill="url(#paint7_linear_903_117)"/>
<path d="M48.705 77.3661C48.0257 77.4923 47.4054 77.9152 47.0604 78.5173C46.4831 79.4947 46.4173 80.6734 46.4429 81.7809C46.4845 82.7838 46.6456 83.8538 47.2859 84.6646C47.7632 85.2741 48.5479 85.5809 49.3111 85.5688C50.0448 85.5923 50.8134 85.3439 51.3114 84.7861C51.9464 84.0921 52.1505 83.1281 52.2378 82.2193C52.2767 81.3265 52.2941 80.4183 52.0632 79.5464C51.8786 78.81 51.4893 78.0736 50.816 77.6776C50.1891 77.293 49.4151 77.2574 48.705 77.3661ZM48.9923 75.7773C50.2227 75.7021 51.5115 75.9572 52.5264 76.6855C53.4346 77.3312 54.0515 78.326 54.3394 79.3926C54.6818 80.6667 54.6811 82.0259 54.3703 83.306C54.0777 84.4861 53.3936 85.599 52.3613 86.2696C51.2577 87.0013 49.8723 87.1912 48.5774 87.0348C47.4746 86.8992 46.3992 86.4159 45.6313 85.6037C44.7292 84.6586 44.2808 83.3564 44.1881 82.0696C44.074 80.6425 44.2928 79.1322 45.0876 77.9132C45.6749 76.9963 46.6093 76.3223 47.6518 76.0149C48.0861 75.8793 48.5392 75.8162 48.9923 75.7773Z" fill="url(#paint8_linear_903_117)"/>
<path d="M85.278 77.3078C84.6041 77.3514 83.953 77.7387 83.6523 78.3543C83.0636 79.492 83.0522 80.8158 83.0817 82.067C83.1287 82.8845 83.2166 83.7283 83.5986 84.466C83.8557 84.9627 84.3235 85.3561 84.8773 85.4762C85.7244 85.6796 86.7206 85.5071 87.3227 84.8385C87.9026 84.1787 88.0939 83.2813 88.1832 82.4321C88.2436 81.4635 88.2483 80.4761 88.0073 79.5283C87.8422 78.8946 87.563 78.2616 87.0609 77.8213C86.5789 77.3984 85.9077 77.2346 85.278 77.3078ZM88.1798 71.1706C88.1644 70.9135 88.4269 70.7497 88.6551 70.7302C89.0209 70.7101 89.3868 70.7195 89.7533 70.7235C90.0318 70.7208 90.344 70.9282 90.3037 71.2377C90.3037 76.2909 90.3044 81.3434 90.303 86.3959C90.3218 86.657 90.0647 86.859 89.8237 86.8751C89.5324 86.8906 89.2411 86.8906 88.9511 86.8704C88.7464 86.857 88.5484 86.7261 88.4786 86.5308C88.3691 86.2019 88.3121 85.8615 88.2289 85.5273C87.8248 86.075 87.3045 86.559 86.6581 86.7993C85.7352 87.1389 84.7081 87.1443 83.7603 86.9134C83.2856 86.7952 82.8408 86.5789 82.4547 86.2784C82.0686 85.9779 81.7496 85.6 81.5184 85.1688C80.7968 83.8545 80.7115 82.3086 80.7565 80.8419C80.7827 79.5894 81.0216 78.267 81.8385 77.2729C82.4548 76.4305 83.4643 75.9472 84.4833 75.8203C85.4324 75.682 86.4614 75.8411 87.2468 76.4157C87.618 76.6775 87.9154 77.0272 88.1812 77.3937C88.1738 75.3196 88.1758 73.2454 88.1798 71.1706Z" fill="url(#paint9_linear_903_117)"/>
<path d="M98.3909 77.3709C98.0499 77.4359 97.7284 77.5783 97.4511 77.787C96.904 78.2133 96.6322 78.8892 96.4872 79.5457C96.2764 80.5875 96.2791 81.6635 96.3879 82.7174C96.4899 83.4913 96.6846 84.3176 97.2524 84.8895C97.7149 85.3755 98.4123 85.5534 99.0655 85.5212C99.7669 85.5467 100.498 85.2856 100.95 84.7345C101.516 84.0498 101.676 83.1396 101.759 82.2824C101.811 81.2742 101.812 80.2418 101.528 79.2631C101.349 78.6536 101.022 78.0475 100.47 77.6998C99.8609 77.3004 99.091 77.2635 98.3909 77.3709ZM97.4511 75.9874C98.4308 75.7203 99.4613 75.6996 100.451 75.927C101.365 76.1384 102.221 76.6513 102.783 77.4105C103.377 78.1891 103.677 79.1544 103.802 80.1163C103.91 80.858 103.878 81.6091 103.88 82.3569C103.88 83.7055 103.88 85.054 103.876 86.4025C103.891 86.567 103.787 86.7127 103.653 86.7979C103.427 86.9375 103.145 86.8758 102.893 86.8919C102.61 86.8892 102.237 86.914 102.083 86.6193C101.932 86.273 101.901 85.887 101.804 85.5225C101.424 85.9843 101.031 86.4603 100.481 86.7267C99.6434 87.1409 98.6641 87.1161 97.7679 86.9415C96.6705 86.7254 95.6602 86.077 95.04 85.1426C94.3009 84.0552 94.0331 82.7127 94.0432 81.4151C94.0345 80.1498 94.2821 78.8422 94.9856 77.7723C95.5488 76.897 96.4516 76.2633 97.4511 75.9867V75.9874Z" fill="url(#paint10_linear_903_117)"/>
<path d="M117.068 84.2724C116.511 84.4772 116.161 85.1189 116.303 85.6988C116.448 86.3788 117.24 86.8433 117.901 86.5916C118.51 86.4057 118.894 85.7116 118.706 85.0987C118.539 84.41 117.722 84.0019 117.068 84.2724ZM117.146 83.9818C117.476 83.9294 117.834 83.9261 118.141 84.0791C118.663 84.3161 119.039 84.8759 118.982 85.4585C119.025 86.1533 118.44 86.7742 117.773 86.8863C117.021 87.046 116.213 86.5017 116.06 85.7525C115.862 84.9987 116.386 84.1503 117.146 83.9818Z" fill="url(#paint11_linear_903_117)"/>
<path d="M117.301 84.828C117.299 84.9858 117.299 85.1435 117.301 85.3026C117.439 85.2939 117.581 85.3026 117.718 85.265C117.846 85.2113 117.834 85.0482 117.799 84.9388C117.666 84.8092 117.468 84.8428 117.301 84.828ZM116.883 84.5716C117.283 84.5937 117.73 84.4816 118.09 84.7038C118.38 84.922 118.239 85.3952 117.911 85.4959C118.006 85.7456 118.138 85.9772 118.257 86.2148L117.809 86.2229C117.701 86.0027 117.596 85.7798 117.493 85.5583L117.301 85.5543C117.299 85.7765 117.299 85.9987 117.299 86.2202L116.881 86.2155C116.882 85.6671 116.88 85.1193 116.883 84.5716Z" fill="url(#paint12_linear_903_117)"/>
</g>
<rect x="0.5" y="1.23047" width="143" height="143" rx="5.5" stroke="#CB6AFB" stroke-opacity="0.2"/>
</g>
<defs>
<filter id="filter0_b_903_117" x="-4" y="-3.26953" width="152" height="152" filterUnits="userSpaceOnUse" color-interpolation-filters="sRGB">
<feFlood flood-opacity="0" result="BackgroundImageFix"/>
<feGaussianBlur in="BackgroundImageFix" stdDeviation="2"/>
<feComposite in2="SourceAlpha" operator="in" result="effect1_backgroundBlur_903_117"/>
<feBlend mode="normal" in="SourceGraphic" in2="effect1_backgroundBlur_903_117" result="shape"/>
</filter>
<radialGradient id="paint0_radial_903_117" cx="0" cy="0" r="1" gradientUnits="userSpaceOnUse" gradientTransform="translate(72 72.7305) rotate(45) scale(101.823)">
<stop offset="0.791667" stop-color="#9363F6"/>
<stop offset="1" stop-color="#9865FD"/>
</radialGradient>
<radialGradient id="paint1_radial_903_117" cx="0" cy="0" r="1" gradientUnits="userSpaceOnUse" gradientTransform="translate(72 72.7305) rotate(45) scale(101.823)">
<stop stop-color="#CB6AFB" stop-opacity="0.15"/>
<stop offset="0.7" stop-opacity="0"/>
</radialGradient>
<radialGradient id="paint2_radial_903_117" cx="0" cy="0" r="1" gradientUnits="userSpaceOnUse" gradientTransform="translate(72 72.7305) rotate(45) scale(101.823)">
<stop stop-color="#CB6AFB" stop-opacity="0.3"/>
<stop offset="0.7" stop-opacity="0"/>
</radialGradient>
<linearGradient id="paint3_linear_903_117" x1="25.0125" y1="53.9404" x2="118.988" y2="91.5304" gradientUnits="userSpaceOnUse">
<stop stop-color="#FFF6FF"/>
<stop offset="0.552" stop-color="#FFF0FF"/>
<stop offset="0.877" stop-color="#EBD1F8"/>
</linearGradient>
<linearGradient id="paint4_linear_903_117" x1="25.0125" y1="53.9403" x2="118.988" y2="91.5303" gradientUnits="userSpaceOnUse">
<stop stop-color="#FFF6FF"/>
<stop offset="0.552" stop-color="#FFF0FF"/>
<stop offset="0.877" stop-color="#EBD1F8"/>
</linearGradient>
<linearGradient id="paint5_linear_903_117" x1="25.0125" y1="53.9407" x2="118.988" y2="91.5307" gradientUnits="userSpaceOnUse">
<stop stop-color="#FFF6FF"/>
<stop offset="0.552" stop-color="#FFF0FF"/>
<stop offset="0.877" stop-color="#EBD1F8"/>
</linearGradient>
<linearGradient id="paint6_linear_903_117" x1="25.0125" y1="53.9404" x2="118.988" y2="91.5304" gradientUnits="userSpaceOnUse">
<stop stop-color="#FFF6FF"/>
<stop offset="0.552" stop-color="#FFF0FF"/>
<stop offset="0.877" stop-color="#EBD1F8"/>
</linearGradient>
<linearGradient id="paint7_linear_903_117" x1="25.0126" y1="53.9407" x2="118.988" y2="91.5307" gradientUnits="userSpaceOnUse">
<stop stop-color="#FFF6FF"/>
<stop offset="0.552" stop-color="#FFF0FF"/>
<stop offset="0.877" stop-color="#EBD1F8"/>
</linearGradient>
<linearGradient id="paint8_linear_903_117" x1="25.0125" y1="53.9408" x2="118.988" y2="91.5308" gradientUnits="userSpaceOnUse">
<stop stop-color="#FFF6FF"/>
<stop offset="0.552" stop-color="#FFF0FF"/>
<stop offset="0.877" stop-color="#EBD1F8"/>
</linearGradient>
<linearGradient id="paint9_linear_903_117" x1="25.0125" y1="53.9409" x2="118.988" y2="91.5309" gradientUnits="userSpaceOnUse">
<stop stop-color="#FFF6FF"/>
<stop offset="0.552" stop-color="#FFF0FF"/>
<stop offset="0.877" stop-color="#EBD1F8"/>
</linearGradient>
<linearGradient id="paint10_linear_903_117" x1="25.0125" y1="53.9409" x2="118.987" y2="91.5309" gradientUnits="userSpaceOnUse">
<stop stop-color="#FFF6FF"/>
<stop offset="0.552" stop-color="#FFF0FF"/>
<stop offset="0.877" stop-color="#EBD1F8"/>
</linearGradient>
<linearGradient id="paint11_linear_903_117" x1="25.0124" y1="53.9407" x2="118.987" y2="91.5307" gradientUnits="userSpaceOnUse">
<stop stop-color="#FFF6FF"/>
<stop offset="0.552" stop-color="#FFF0FF"/>
<stop offset="0.877" stop-color="#EBD1F8"/>
</linearGradient>
<linearGradient id="paint12_linear_903_117" x1="25.0124" y1="53.9405" x2="118.987" y2="91.5306" gradientUnits="userSpaceOnUse">
<stop stop-color="#FFF6FF"/>
<stop offset="0.552" stop-color="#FFF0FF"/>
<stop offset="0.877" stop-color="#EBD1F8"/>
</linearGradient>
<clipPath id="clip0_903_117">
<rect width="93.975" height="37.59" fill="white" transform="translate(25.0125 53.9404)"/>
</clipPath>
</defs>
</svg>
